<?xml version="1.0" encoding="utf-8"?>
<!-- Generator: Adobe Illustrator 14.0.0, SVG Export Plug-In . SVG Version: 6.00 Build 43363)  -->
<!DOCTYPE svg PUBLIC "-//W3C//DTD SVG 1.1//EN" "http://www.w3.org/Graphics/SVG/1.1/DTD/svg11.dtd">
<svg version="1.1" xmlns="http://www.w3.org/2000/svg" xmlns:xlink="http://www.w3.org/1999/xlink" x="0px" y="0px" width="100px"
	 height="100px" viewBox="0 0 100 100" enable-background="new 0 0 100 100" xml:space="preserve">
<g id="Capa_1">
</g>
<g id="Capa_2">
	<g>
		<path fill="#FFFFFF" d="M26.319,39.492c3.855,7.821,2.782,16.231-2.391,18.785c-5.173,2.549-12.491-1.725-16.347-9.551
			c-3.855-7.817-2.782-16.23,2.384-18.779C15.144,27.392,22.463,31.67,26.319,39.492"/>
		<path fill="#FFFFFF" d="M76.279,25.964c-2.226,9.498-9.212,15.976-15.602,14.48c-6.382-1.498-9.757-10.408-7.525-19.907
			c2.221-9.494,9.212-15.977,15.591-14.471C75.138,7.565,78.506,16.47,76.279,25.964"/>
		<path fill="#FFFFFF" d="M48.969,20.469c2.47,9.663-0.417,18.754-6.447,20.292c-6.028,1.54-12.915-5.056-15.385-14.717
			c-2.464-9.668,0.424-18.759,6.452-20.292C39.614,4.212,46.504,10.802,48.969,20.469"/>
		<path fill="#FFFFFF" d="M94.149,50.778c-1.973,8.15-8.387,13.576-14.321,12.137s-9.144-9.201-7.166-17.347
			c1.973-8.149,8.383-13.592,14.315-12.148C92.918,34.859,96.127,42.628,94.149,50.778"/>
		<path fill="#FFFFFF" d="M16.132,74.905c0,0,4.347-3.692,11.651-12.27c5.575-6.538,10.535-18.733,21.275-18.521
			c10.742,0.211,9.488,7.001,19.134,18.611c4.755,5.722,12.345,9.074,13.317,19.995c0.533,6.024-2.797,11.229-8.79,11.698
			c-7.107,0.562-13.761-3.553-20.736-4.12c-9.926-0.804-29.732,10.445-36.343-2.374C13.953,84.651,14.418,78.089,16.132,74.905"/>
	</g>
</g>
</svg>
