<?xml version="1.0" encoding="utf-8"?>
<!-- Generator: Adobe Illustrator 14.0.0, SVG Export Plug-In . SVG Version: 6.00 Build 43363)  -->
<!DOCTYPE svg PUBLIC "-//W3C//DTD SVG 1.1//EN" "http://www.w3.org/Graphics/SVG/1.1/DTD/svg11.dtd">
<svg version="1.1" id="Capa_1" xmlns="http://www.w3.org/2000/svg" xmlns:xlink="http://www.w3.org/1999/xlink" x="0px" y="0px"
	 width="595.28px" height="841.89px" viewBox="0 0 595.28 841.89" enable-background="new 0 0 595.28 841.89" xml:space="preserve">
<g>
	<path fill="#FFFFFF" d="M573.458,294.63c1.413-0.246,1.835,0.054,2.776,0.062C577.242,293.771,573.186,294.121,573.458,294.63z"/>
	<path fill="#FFFFFF" d="M573.458,294.63C571.415,294.869,574.257,295.826,573.458,294.63L573.458,294.63z"/>
	<path fill="#FFFFFF" d="M558.298,295.666c-2.801,1.758-16.434,4.954-18.75,4.777c-3.057,0.3-6.145,2.018-6.639,1.869l0.37-1.335
		c-9.386,0.644-27.389,8.523-33.411,9.262c0.447,0.694-3.706,2.284-1.964,0.739c-1.318,1.053-3.232,2.088-6.286,3.062l-0.229-0.571
		c-0.51,0.123-1.282,0.492-1.405,0.213c0.534-0.123,1.281-0.484,1.405-0.213c3.527-1.64,9.295-3.809,14.589-6.881
		c-3.968,1.984-12.063,5.241-16.336,6.26c2.658-1.457,7.365-2.838,9.592-4.328c-5.479,1.458-21.532,9.192-26.317,9.689
		c6.215-2.474,15.188-5.438,15.941-7.336c1.668,0.032,5.322-2.195,7.131-3.045c-1.188-0.767-2.775,1.287-4.163,0.929
		c-1.649-0.292-7.006,3.327-8.813,2.703c1.492-1.113,2.459-0.555,3.195-1.537c-2.607,0.124-7.533,3.669-10.708,3.742
		c3.097-1.519,8.987-3.408,13.006-5.585c-3.387,0.722-3.439,0.545-4.782-0.456c-3.977,1.572-4.17,1.754-7.989,3.036l0.114,0.283
		c1.026,0.14-0.632,1.686-1.367,2.139c-0.986,0.16-1.513-0.122-1.837-0.594c0.481-0.983,2.758-0.387,3.204-1.545
		c-0.361,0.13-0.858,0.061-0.114-0.283c5.915-3.229,15.25-5.792,21.569-9.531c-3.027,2.194,3.732-0.957,4.124-1.248
		c-0.814,0.196-1.878,0.14-0.876-0.334c1.062-0.366,2.493-1.096,2.774-0.719c-1.719,0.642-0.739,0.526-0.466,0.834
		c2.238-0.569,0.616-1.309,1.598-1.93c-6.188,2.222-13.546,5.546-18.847,6.889c0.483,0.342-3.478,1.853-3.354,1.281l3.354-1.281
		c-2.054,0.3,0.913-1.792-1.79-0.616c-0.956,0.509,0.403,0.267,0.331,0.846c-3.034,0.255-2.615,2.58-7.022,3.651
		c0.309,0.3,1.282,0.176-0.438,0.814c0.077-0.27-0.194-0.552,0.438-0.814l1.771-1.325c0.571-1.028-2.466-0.412-0.587-1.397
		l10.107-3.861c1.632-1.069-12.413,4.408-4.391,0.702l-0.221-0.563c-0.395,0.247-2.306,1.695-2.712,1.036
		c0.809-0.247,1.178-0.526,1.245-0.799c-1.052,0.223-3.369,1.66-3.5,1.011c3.746-2.004,8.235-3.022,14.088-5.708
		c-3.056-0.474-8.366,3.638-9.805,2.768c1.431-0.633,7.328-2.538,5.329-2.362c-1.635,0.386-5.109,2.544-4.987,1.262
		c5.232-2.114,6.777-2.737,12.15-4.967c-0.063-0.159,0.419-0.545,0.677-0.262c3.361-1.89,4.622-1.019,6.609-3.177
		c1.774,0.506,4.415-1.318,6.145-2.357l-0.861-0.313c-10.285,4.848-23.385,9.531-38.028,15.18c-0.254-1.45-1.003,0.016-2.433-0.045
		c-0.098,0.755,1.503-0.115,1.767,0.296l-5.462,2.128c-1.59,0.903-3.123,1.72-3.501,1.165l3.255-1.709
		c8.5-5.199-1.061,0.14-4.942,1.577c15.198-8.584-9.789,5.234-10.034,4.585c-0.023-0.756,3.601-1.845,2.865-2.538l-1.462,0.429
		c-0.806,0.816-1.472,1.178-2.604,1.37c2.22,0.579-1.615,3.143-3.343,3.126c1.754-1.273,2.534-2.018,1.245-2.361
		c0.842-0.429,1.088-0.133,2.098-0.765c0.042-0.419,2.563-2.67,2.604-1.37c2.461-2.563,6.654-3.6,8.625-5.916
		c3.493-0.622,6.249-3.862,11.428-5.213c-0.156-1.302-3.512,0.455-4.784,0.209c4.223-1.298,6.855-3.344,9.155-3.18
		c-0.061,1.363-3.61,0.934-3.122,2.161c6.249-2.757,14.097-4.791,16.397-6.918l1.385-0.526c0.104-0.464,1.073-0.911,1.081-1.388
		c-4.749,2.091-6.104,1.092-11.806,4.522c1.085,0.377,2.605-1.799,2.982-0.501c-0.632,1.072-4.44,1.914-3.812,0.484
		c-9.497,2.816-20.937,9.542-27.844,12.316c3.793-1.977,7.619-3.95,10.395-5.813c0.297-1.545,5.109-2.675,1.458-0.419
		c6.478-4.32,15.449-6.284,22.304-10.448c-1.326,1.44,3.47-0.578,4.182-1.597c-10.034,3.017-14.792,6.225-23.618,8.233
		c0.266-0.009,0.468,0.053,0.432,0.308l-2.08,0.801c1.345,0.155-1.877,1.981-1.86,1.315c-0.027-0.379,0.904-0.843,1.86-1.315
		l-0.115-0.264c-5.512,3.386-10.7,5.915-13.763,7.567c0.314-2.116,6.863-3.232,7.529-4.998c-5.513,2.484-8.513,4.611-13.533,6.418
		c3.896-2.09,8.505-4.23,10.35-6.11c-7.26,3.722-13.354,6.497-18.392,8.631c7.147-4.495,15.536-7.305,20.276-11.687
		c5.286-1.551,10.606-5.188,17.54-6.923c-0.296-0.467,0.615-0.932,0.229-1.398c-16.082,6.673-27.424,12.535-40.468,20.253
		c-1.176,0.219-2.055,0.095-3.795,0.974l-2.367,1.931c0.554,0.275-3.393,2.354-3.337,1.758c-1.214,0.597-1.231,1.068-2.512,1.668
		c-0.174-0.387-0.325-0.789-1.123-0.423c-5.516,5.302-15.941,10.623-22.131,15.712l-0.621,0.424c0.401,0.834-2.759,1.501,0,0
		c-0.37-0.773-3.705,2.772-4.103,2.011c1.616-1.055,0.644-0.71,0.299-0.923c4.17-4.002,10.844-7.092,15.038-10.04
		c0.026,0.366-1.134,0.99-0.921,1.348c3.078-4.378,12.772-8.646,17.16-12.43c-0.453,1.355,4.398-1.43,4.169-1.835
		c-3.924,1.74-5.825,1.766-8.138,2.574c-1.998,1.332-10.829,6.786-12.923,7.863c1.014-1.764,7.466-4.634,8.502-6.396l-28.399,18.932
		c-0.889,1.249,1.403,0.197-0.552,1.845c-1.32-2.298-9.254,6.015-10.886,5.628c2.43-2.248,7.32-4.512,8.55-6.277
		c-1.405,0.736-1.61,0.51-1.15-0.316c-7.944,5.172-16.998,12.627-21.323,17.022c5.283-3.606,8.541-7.188,13.745-10.665
		c-3.677,2.563-0.526,1.238-2.403,3.1c-2.846,1.729-7.603,6.17-12.948,10.417l0.219-0.962c-2.001,1.122-4.248,3.459-3.738,3.801
		c-2.838,1.744-3.225,2.73-6.482,5.221c0.397,1.503,1.813-1.719,2.161-0.963c0.526,0.437-2.001,1.79-2.748,2.613v-1.176
		c-1.141,0.704-3.201,3.056-3.71,2.598c3.052-2.81-1.511,1.248-1.197-0.209l1.969-1.196l-0.385-0.453
		c-0.337,0.263-0.829,0.35-0.196-0.229l0.196,0.229l0.586-0.475c-0.464-0.79,2.643-1.758,0,0c0.958-0.124,5.591-3.863,5.888-4.757
		c-3.077,0.349-11.559,10.18-13.92,9.356c0.869-0.809,2.124-1.948,2.521-1.722l2.551-1.667c-0.325-0.3-0.649-0.579,0-1.179
		c1.782-0.596,4.881-4.317,2.96-1.208c2.608-2.049,5.222-4.075,4.327-4.288c1.236-0.629,2.354-0.629,3.161-2.14
		c0.756-3.213,9.587-5.494,10.85-9.534c3.791-1.809,8.129-5.221,11.324-8.955c3.135-0.017,5.558-5.615,9.694-6.124
		c-0.994,0.701-2.514,1.507-2.373,1.967c1.219-1.047,4.39-2.477,4.267-3.232c-3.914,2.354,4.951-5.319,4.44-2.969
		c1.053-0.251,1.063-0.561,1.914-1.282l-0.172-0.244c-0.529,0.281-1.266,0.844-1.442,0.609c1.019-0.484,3.09-2.497,3.344-1.873
		c0.09,0.35-0.822,0.949-1.729,1.508c2.827-0.542,4.388-5.188,3.795-2.526c11.535-9.024,17.171-13.747,29.748-18.734
		c-4.238,2.16-5.721,2.652-7.854,4.83c2.808-1.545,5.617-3.09,7.091-3.056c1.784-1.896,3.47-2.877,7.165-4.462
		c0.016-1.611-5.083,2.743-5.865,2.066c4.757-3.644,9.849-4.346,11.956-6.979c-3.826,1.65-3.948,2.209-6.268,2.948
		c0.843-1.228,5.146-2.825,7.355-4.214c-19.531,8.375-40.898,21.982-56.771,33.658c-0.481-1.388-2.325,0.756-4.063,0.896
		c0.806-1.027,4.353-3.003,5.915-3.599c-1.51,0.587-2.755,2.428-0.929,1.35c0.2-0.896,6.117-3.247,6.864-4.942
		c-2.292,0.705-3.661,2.977-4.812,2.484c2.161-1.237,3.162-2.229,3.476-3.062c2.986-0.66,8.149-6.206,16.678-11.105
		c1.565-0.037,0.907,0.422,2.074,0.439c3.258-2.721,10.763-7.518,14.459-8.833c-0.115-0.526-1.537-0.069-0.448-0.788
		c1.352-1.282,10.482-4.69,8.638-5.232c-5.409,2.792-15.028,8.552-20.066,10.236c7.31-4.248,11.867-5.604,14.675-8.771
		c-0.736,0.395-1.813,0.798-0.834,0.095l0.834-0.095c0.037,0.956,7.623-3.135,5.656-2.637c-2.371,1.416-3.669,1.643-4.576,1.371
		c1.449-0.64,2.135-1.186,1.786-1.633c-2.392,0.554-5.664,3.066-7.041,3.38c0.243,0.167-0.143,0.387-0.555,0.624
		c0.555,0.36,1.59,0.324,0.744,1.335c-1.203,0.111-3.809,0.921-2.809-0.239c-3.644,1.813-9.806,4.075-11.395,6.709
		c-1.332-1.073-4.528,3.749-6.918,4.97c-2.054,0.806,0.632-2.065-1.964-0.168c-0.756,1.535-2.396,1.64-2.071,2.484
		c-3.459,1.192-6.867,5.546-11.132,7.058c-9.34,7.163-21.72,13.625-26.679,19.7c2.351-1.495,6.539-6.129,7.56-5.286
		c-1.011,1.009-16.723,11.99-13.593,11.307c-9.424,6.225-17.941,14.114-26.763,21.771c4.909-6.347,16.213-13.646,21.816-19.348
		c-7.746,5.949-16.604,13.729-22.985,19.195c9.779-10.893,21.359-17.527,34.01-28.835c0.387-0.345,4.37-2.827,2.625-2.888
		c-11.624,10.068-18.077,14.106-25.817,20.806c0.51-0.326,1.176-0.958,1.405-0.748c-0.529,0.324-1.203,0.958-1.405,0.748
		c-1.063,1.853-0.799,0-2.599,1.7c0.834,0.801-3.775,3.804-5.27,5.631c1.563-2.67-4.175,2.765-4.117,3.438
		c0.843-0.965,0.714,0.887,0.255,1.413c-4.667,4.243-7.331,7.007-9.689,8.684c1.262-2.406,7.813-6.92,9.085-9.36
		c-3.268,0.529-5.803,6.814-8.244,6.917c4.303-5.406,10.333-9.233,12.258-12.763c-2.312,2.058-4.741,4.621-8.055,7.139
		c1.646-1.669,3.874-3.557,3.319-4.354c-1.869,1.837-1.754,3.037-3.38,3.167c0.335,0.913-0.93,1.108-0.851,2.451l-1.527,0.605
		c-1.315,3.019-10.299,6.564-12.542,11.378c0.895-0.984,1.235-0.834,1.543-0.625c-1.371,1.607-1.543,0.634-2.651,1.678
		c0.447,0.335-0.068,1.025-1.266,2.02c-0.156-0.439,1.002-1.405,1.266-2.02l-0.21-0.22c-1.688,0.474-5.645,5.768-6.813,5.172
		c2.501-2.301,4.181-3.303,5.392-5.513c-1.632,1.227-2.616,1.102-4.223,2.317c3.123-2.521,3.451-3.257,6.741-6.357l-0.14,0.967
		c1.799-0.894,1.991-2.504,3.581-2.96c0.042,1.098-4.854,4.181-3.844,4.892c6.609-6.347,13.386-10.798,17.749-17.103
		c-4.663,4.354-8.446,6.866-11.563,7.947c2.477-1.925,2.652-2.054,3.531-4.164c-9.912,7.209-15.293,13.695-23.932,20.902
		c-1.556,0.622-0.105-0.37-0.123-1.211c-2.88,2.37-3.704,4.283-6.252,5.775c5.066-6.125,10.483-9.92,12.644-14.693l-1.126,1.068
		c-1.019-0.016-2.088,1.774-1.28,1.215c-3.229,3.3-9.552,10.689-7.305,6.635c-5.775,5.775-9.304,9.813-16.011,15.766
		c0.903-1.175,3.492-3.131,2.194-3.249c-22.593,23.142-43.804,47.755-65.749,75.479c-14.302,18.804-28.207,38.746-41.217,58.676
		c-1.113,1.713-2.193,3.363-3.301,5.057c-1.79-2.398-3.537-4.777-5.153-7.041c-6.828-9.685-12.78-20.172-17.434-26.256
		c-3.967-5.138-7.707-9.193-11.298-14.266c-6.504-9.308-15.222-22.612-19.584-31.464c-4.749-5.091-9.078-18.618-16.03-26.845
		c-0.719,1.019-1.352,2.461-2.992,0.896c0.341,6.567-9.842,3.159-8.937,11.879c-0.616-1.519-0.87-2.781-2.029-4.723
		c-1.457,0.061,2.389,4.186,1.142,4.398c-3.528,1.527-5.197,1.718-4.74,6.968c-0.711-1.068-1.3-1.176-1.791-0.649
		c-0.105-0.945-1.282-2.466-2.108-3.02c1.774,3.159-1.035,0.781,0.528,3.933c-1.581-2.992-1.914,0.405-3.951-1.966
		c0.895,1.984,1.177,3.493,1.536,5.066c-1.088-0.379-2.317-1.747-3.74-4.635c-0.658,1.562-0.684,1.534,0.01,4.238l-2.959-0.841
		c0.412,1.367-0.237,2.201,0.008,4.265c-3.827-3.529-3.73,2.106-7.583-1.59c-0.581,3.011-3.311,6.822-6.094,5.244
		c0.702,2.368-1.088,1.226,0.019,4.265c-2.054-3.002-2.748-1.896-2.845-0.062c-0.983-0.903-2.027-2.205-2.818-1.808
		c-0.587,2.264,1.009,6.223-1.598,6.945c-0.948-2.082-1.624-2.197-2.501-3.725c-0.808,8.83,5.547,22.456,15.397,37.581
		l14.905,22.378c10.86,17.134,21.507,36.288,33.947,54.426l9.366,12.447c7.726,9.939,11.202,17.82,25.845,31.855
		c9.006,6.227,19.497,15.136,41.97,6.357c23.164-13.965,13.816-11.534,19.408-15.678c5.216-6.199,8.534-11.051,11.534-15.651
		c39.75-62.681,87.682-116.966,133.389-163.151c12.722-11.63,27.575-29.137,42.219-40.354c9.008-7.058,18.908-16.398,27.492-22.333
		c1.381-0.806,2.407-1.025,4.119-2.388c0.921-2.073,5.451-3.221,7.539-5.759c1.724-2.3,9.604-5.409,10.605-8.56
		c3.548-1.499,6.215-3.483,9.357-5.681c-0.615,0.344-1.455,0.705-0.279-0.14c0.596-0.21,0.771-0.227,0.756-0.174
		c1.348-0.932,2.772-1.897,4.461-2.88l-0.31,0.834c1.369-1.116,7.104-3.767,3.728-2.975c7.041-3.967,14.261-9.062,22.924-12.8
		c-1.66-1.054,4.063-2.759,1.063-0.914c2.667-0.332,2.177-2.169,3.633-1.677l1.124-0.755c-0.14-0.369,1.579-1.008,1.858-0.711
		l-1.858,0.711c0.534,0.537,3.309-1.237,3.985-0.851c-0.229-0.379-0.439-0.756,0.263-1.089c0.526,1.179,3.985-2.617,3.352-0.606
		c2.214-0.605,0.337-1.447,2.785-2.039l-0.282,1.081c2.397-0.402-0.017-1.105,1.538-1.553c1.466,0.008,1.14-0.675,2.613-0.675
		c3.723-2.435,9.457-3.967,10.64-6.032c0.871,0.098,0.387,0.36,0.282,0.853l8.762-3.388c-2.143,0.192-4.451,1.561-6.407,1.947
		c0.164-0.234-2.302-0.674,0.209-1.492c-0.624-0.061-4.223,0.933-4.407,1.704c1.035-0.509,1.265-0.229,1.458,0.087
		c-1.934,0.247-4.161,0.826-7.109,2.09c0.209,0.297,0.172,0.844,0.939,0.613c-0.061-0.156,0.393-0.526,0.621-0.243l-0.621,0.243
		c-0.263,1.581-4.821,1.368-6.49,1.828c1.529-0.834,2.774-1.423,4.498-1.396c-0.063-0.369-0.063-0.735,1.053-1.045
		c-0.484-0.105-0.958-0.229-0.213-0.582l8.182-3.139c-0.92-0.784-5.397,1.332-1.746-0.969c-2.571,0.79-3.303,1.704-4.136,2.58
		c-1.176-1.79-4.695,2.037-7.892,2.037c-0.867,2.706-4.871,2.97-9.156,4.46c-0.436-0.755,3.985-1.228,3.565-2
		c-0.825,0.228-0.87-0.316-0.23-0.563l-1.388,0.213c0.6,0.753-1.824,1.35-2.814,2.035c0.111-0.237,1.132-1.677-0.465-1.122
		c-3.602,1.606-2.566,1.808-4.478,3.319c-1.196,0.402-0.811-0.801-1.757-0.634c-2.731,1.266-2.669,0.806-2.776,2.105
		c-2.394,1.343-2.728,1.371-1.466,0.089c-2.709,1.29-2.396,1.948-2.641,2.433c-3.141,1.323-4.38,1.622-5.962,1.782
		c4.998-3.47,13.59-7.394,16.92-8.938l-2.916,0.132c2.792-0.905,7.901-3.484,9.997-4.433c3.479-1.984,7.981-2.88,11.93-5.214
		c-0.269-0.784,2.784-1.848,3.742-1.757c-0.228-0.297-0.046-0.561,0.439-0.826c2.104-1.553,4.97-2.421,7.672-2.966
		c0.859-2.37,4.74-2.521,7.004-2.88c5.434-0.913,10.36-3.003,16.479-4.802c10.287-2.687,21.551-6.436,31.54-6.699
		C567.453,294.194,561.601,295.913,558.298,295.666z M482.083,309.221c-0.649,0.246-0.666-0.157-0.896-0.317
		C481.835,308.677,481.856,309.064,482.083,309.221z M479.979,309.696C482.731,309.028,477.476,311.028,479.979,309.696
		L479.979,309.696z M487.948,304.71C490.724,304.016,485.434,306.037,487.948,304.71L487.948,304.71z M480.488,307.219l1.438-0.22
		C481.856,307.798,478.845,308.379,480.488,307.219z M473.973,308.415C476.754,307.721,471.443,309.74,473.973,308.415
		L473.973,308.415z M479.185,304.147C478.976,303.252,482.099,303.339,479.185,304.147l1.582,0.037
		c0.045,0.189,0.05,0.387-0.554,0.544l-1.343,0.509C478.825,304.883,478.421,304.489,479.185,304.147z M479.942,300.283
		C482.767,299.584,477.386,301.638,479.942,300.283L479.942,300.283z M478.606,302.734
		C481.417,302.041,476.06,304.078,478.606,302.734L478.606,302.734z M477.218,301.322
		C471.969,302.841,479.721,300.603,477.218,301.322L477.218,301.322z M475.411,302.665
		C478.212,301.786,471.286,303.962,475.411,302.665L475.411,302.665z M476.413,306.834c0.313,0.402-4.144,2.229-3.475,0.998
		C473.814,307.766,474.902,307.502,476.413,306.834z M484.242,291.163C486.913,290.978,480.924,293.209,484.242,291.163
		L484.242,291.163z M447.881,304.637c-0.632,0.336-0.666-0.066-0.929-0.19C447.602,304.111,447.636,304.498,447.881,304.637z
		 M447.058,309.538C449.479,308.519,441.966,311.707,447.058,309.538L447.058,309.538z M416.131,314.05
		c2.211-1.046-1.51,1.423-2.344,1.932C411.556,317.05,415.298,314.577,416.131,314.05z M379.956,334.91
		C382.598,333.361,376.056,337.214,379.956,334.91L379.956,334.91z M376.81,337.05C379.408,335.54,374.644,339.165,376.81,337.05
		L376.81,337.05z M421.424,303.473C424.27,302.357,418.897,305.203,421.424,303.473L421.424,303.473z M418,305.269
		c-0.098,0.478-0.545,1.002-1.723,1.602C416.375,306.403,416.832,305.869,418,305.269z M408.845,310.88
		C411.556,309.485,406.517,312.847,408.845,310.88L408.845,310.88z M406.299,312.573l1.271-0.851
		c0.648,0.354-0.604,1.098-1.579,1.791L406.299,312.573z M397.539,318.774C400.25,317.385,395.212,320.747,397.539,318.774
		L397.539,318.774z M391.171,323.021c2.25-1.09-1.517,1.431-2.367,1.949C386.529,326.079,390.313,323.557,391.171,323.021z
		 M316.256,369.501C318.733,367.667,314.291,371.846,316.256,369.501L316.256,369.501z M313.816,371.391
		C315.949,369.686,309.321,375.008,313.816,371.391L313.816,371.391z M309.181,373.234l-0.14,0.986
		c0.395-0.468,1.098-1.057,0.913-1.276c2.246-1.887-0.37,2.029-0.913,1.276c-1.633,0.62-1.511,1.611-3.38,3.176
		C306.265,376.201,307.514,373.955,309.181,373.234z M303.193,379.291C299.691,382.234,305.583,377.292,303.193,379.291
		L303.193,379.291z M303.126,378.106c0.077,0.773-2.793,2.748-1.388,2.985l-1.915,1.377
		C299.734,381.002,300.782,379.958,303.126,378.106z M118.968,478.946C116.15,476.357,117.582,475.117,118.968,478.946
		L118.968,478.946z M252.611,422.781c0.337,0.561-2.139,2.659-1.289,2.949C249.169,427.38,250.936,424.255,252.611,422.781z
		 M252.875,429.075c-1.192,0,0.685-1.66,1.511-2.748C254.665,426.819,254.069,427.785,252.875,429.075z M265.448,409.419
		c-1.967,1.606,1.175-1.747,1.894-2.46C269.309,405.364,266.167,408.701,265.448,409.419z M271.478,406.54
		C273.822,404.547,269.653,409.007,271.478,406.54L271.478,406.54z M279.14,401.018c-1.632,1.3-3.431,3.027-4.88,3.882
		c-0.633-0.36,1.605-4.611,2.722-3.803c0.65-0.728,0.439-1.035,1.352-1.896C279.615,399.159,279.229,399.746,279.14,401.018z
		 M291.38,389.291C293.441,387.735,289.868,392.002,291.38,389.291L291.38,389.291z M281.825,400.377
		C284.162,398.385,280.001,402.818,281.825,400.377L281.825,400.377z M281.25,398.761c-0.969,0.405,1.692-2.036-0.583-1.597
		l1.581-1.703c-0.472-0.596,1.722-1.967,2.108-2.238c0.36,0.237-1.271,1.872-0.087,0.993c-0.37,0.981-1.161,2.124,0.666,0.612
		C284.795,396.32,282.442,397.129,281.25,398.761z M286.253,396.093C288.587,394.119,284.426,398.553,286.253,396.093
		L286.253,396.093z M290.205,389.212c0.551,0.191-2.563,3.526-2.318,2.037C288.799,390.211,289.253,390.318,290.205,389.212z
		 M289.236,394.689C291.465,392.565,285.937,397.831,289.236,394.689L289.236,394.689z M289.051,396.656
		c-0.129-0.465,1.133-1.581,1.88-2.451C290.774,395.095,290.044,396.18,289.051,396.656z M293.215,390.001
		C289.535,394.443,290.854,391.16,293.215,390.001C293.828,389.299,293.853,389.973,293.215,390.001z M294.171,389.862
		C296.489,387.912,292.344,392.334,294.171,389.862L294.171,389.862z M294.485,389.09c0.669-1.126,1.029-2.74-1.175-0.073
		c-0.315-0.174,0.421-1.143-0.439-0.437c1.625-2.301,1.73-3.441,4.408-5.391l-1.572,2.815c0.201,1.276,1.433-0.095,2.862-1.516
		C298.928,385.603,296.277,386.551,294.485,389.09z M301.052,385.893l1.122-1.054c0.073,0.282,0.415,0,0.773-0.306
		C303.59,384.742,300.709,387.246,301.052,385.893z M305.567,384.987C308.023,383.171,303.608,387.316,305.567,384.987
		L305.567,384.987z M301.788,387.717c-1.183,0.791,0.091-0.559,0.896-1.27c0.599-0.643,0.107-0.521-0.21-0.221
		c0.177-1.397,2.459-1.754,3.916-3.68C306.89,383.442,303.493,385.911,301.788,387.717z M315.266,379.625
		c-0.045,0.771-0.976,0.974-1.668,1.563C313.642,380.415,314.572,380.205,315.266,379.625z M313.272,385.245
		C315.712,383.434,311.342,387.55,313.272,385.245L313.272,385.245z M310.796,377.157
		C312.85,376.616,308.41,378.394,310.796,377.157L310.796,377.157z M312.305,390.747c-0.244-0.711,2.619-2.632,3.627-3.835
		C315.196,388.614,314.248,389,312.305,390.747z M349.108,356.993C351.659,355.398,346.981,359.162,349.108,356.993L349.108,356.993
		z M349.914,354.414C352.46,352.799,347.77,356.574,349.914,354.414L349.914,354.414z M351.689,352.992
		C354.25,351.357,349.573,355.132,351.689,352.992L351.689,352.992z M353.461,351.554
		C356.025,349.927,351.334,353.71,353.461,351.554L353.461,351.554z M357.615,348.207
		C360.178,346.584,355.499,350.356,357.615,348.207L357.615,348.207z M362.96,343.897
		C365.511,342.299,360.827,346.074,362.96,343.897L362.96,343.897z M367.506,339.857C370.292,338.575,365.82,341.77,367.506,339.857
		L367.506,339.857z M369.26,339.614C371.808,338.016,367.121,341.791,369.26,339.614L369.26,339.614z M374.951,335.805
		C377.497,334.221,372.809,337.982,374.951,335.805L374.951,335.805z M383.641,326.954c-7.569,5.196-12.254,9.181-17.698,13.361
		c-0.432-0.308,0.545-1.438-0.544-0.722c-0.447-0.753,4.248-3.072,3.801-3.825c1.194-0.677,0.422,0.366,0.555,0.719
		c2.775-1.913,3.738-3.353,4.247-4.53c1.421-0.764,1.623-0.518,1.169,0.3C377.968,330.536,381.567,327.624,383.641,326.954z
		 M363.396,341.983c-1.227,0.825-1.612,0.174-3.354,1.923c-0.648-1.117,2.424-1.509,2.608-2.872
		C364.557,339.753,362.466,342.009,363.396,341.983z M354.917,346.074c5.709-5.249,14.134-11.939,18.357-15.091
		C369.72,334.689,359.973,341.843,354.917,346.074z M377.197,329.817C379.568,328.764,375.143,332.099,377.197,329.817
		L377.197,329.817z M421.354,298.696c-1.282,1.464-6.112,3.354-8.787,4.983C414.022,301.883,418.799,299.933,421.354,298.696z
		 M411.733,306.772C414.454,305.376,409.389,308.749,411.733,306.772L411.733,306.772z M405.167,307.861
		c-0.07,0.501-0.491,1.069-1.598,1.791C403.638,309.151,404.061,308.572,405.167,307.861z M402.119,310.249
		C404.841,308.851,399.757,312.244,402.119,310.249L402.119,310.249z M397.781,313.505c1.153,0.123,2.276-2.404,2.891-1.195
		c2.572-1.298,9.831-7.724,11.868-7.163c-4.646,2.39-9.428,6.654-16.67,11.087C395.017,315.645,398.984,314.015,397.781,313.505z
		 M395.036,314.963c0.316,0.086-3.299,2.826-1.72,2.982c-10.061,3.68-31.408,21.149-40.154,28.381
		C368.948,332.063,378.305,326.25,395.036,314.963z M354.145,346.321c0.192,0.526-0.597,1.349-2.002,2.388
		C350.95,348.498,353.126,347.216,354.145,346.321z M349.597,348.04c0.063,0.352-1.061,1.096-0.813,1.42
		C347.054,350.691,348.139,348.744,349.597,348.04z M346.999,350.902c0.722-0.509,0.845,0.019,1.178,0.227l1.79-1.439
		c0.834,0.054-2.789,2.661-3.783,3.819C345.542,352.939,347.507,351.534,346.999,350.902z M344.383,356.134
		C346.894,354.344,340.697,358.785,344.383,356.134L344.383,356.134z M339.626,359.98
		C342.208,358.348,337.517,362.136,339.626,359.98L339.626,359.98z M338.835,359.059
		C340.942,358.662,336.359,360.11,338.835,359.059L338.835,359.059z M336.132,362.945
		C338.573,361.157,334.182,365.264,336.132,362.945L336.132,362.945z M329.987,367.475c-0.545,0.492-0.686,0.107-0.966,0.07
		C329.565,367.036,329.705,367.406,329.987,367.475z M318.88,374.549c-1.326,0.406,4.752-4.685,6.486-6.503
		C326.688,367.653,320.61,372.742,318.88,374.549z M328.986,370.881c0.229,0.738-2.65,2.669-3.669,3.88
		C325.686,373.021,326.667,373.164,328.986,370.881z M326.828,377.499C329.251,375.727,324.885,379.818,326.828,377.499
		L326.828,377.499z M325.457,380.476c0.537-0.501,0.687-0.132,0.948-0.079C325.896,380.891,325.736,380.522,325.457,380.476z
		 M326.907,378.694c1.572-1.827,2.017-1.245,3.143-2.124C330.213,377.236,326.583,380.583,326.907,378.694z M346.148,355.872
		c-0.561-2.283,9.841-8.306,12.931-11.958c0.185,0.526-0.596,1.36-2.001,2.39c2.299-0.677,3.644-2.39,7.09-4.559
		c-0.156-0.341-0.262-0.69,0.817-1.43l0.369,0.474l-1.187,0.956c-9.776,9.271-21.915,16.9-34.076,28.12
		C335.867,364.281,342.469,357.925,346.148,355.872z M331.232,373.375c0.196-0.157,0.247-0.194,0.336-0.281
		C330.863,373.682,328.865,375.358,331.232,373.375z M333.237,371.085c-0.37-0.571,2.254-2.295,3.104-3.346
		C336.885,368.372,334.217,370.725,333.237,371.085z M341.003,369.62c-0.614,0.35-1.388,0.147-1.293,0.806
		c-2.261,1.421,0.55-1.598,1.803-2.519C342.256,368.135,340.729,369.212,341.003,369.62z M341.636,365.774
		c-2.169,1.245-1.942,3.933-3.335,3.054c-0.632,2.197-1.741-0.124-1.845,1.318c-2.748,1.737,2.292-3.776,1.845-1.318
		c0.728-0.781,0.185-1.088,0.498-1.705l6.375-5.378c0.367,0.234-2.618,2.888-0.6,1.657
		C343.445,364.666,342.398,367.036,341.636,365.774z M406.501,318.64c0.764,0.993-3.846,2.625-1.073,2.538l-4.899,2.177
		c-1.226,0.932-0.806,1.508-1.208,2.264c-1.231,0.563-0.397-0.402-0.51-0.756c-2.415,1.812-1.802,1.405-4.407,2.949
		c3.495-0.648-3.741,1.766-4.575,2.687C396.581,325.216,398.757,323.968,406.501,318.64z M388.294,332.256
		C390.924,330.711,384.43,334.54,388.294,332.256L388.294,332.256z M385.591,333.695c-0.599,0.386-0.688,0.018-0.967-0.068
		C385.239,333.213,385.326,333.608,385.591,333.695z M383.437,335.864C386.118,334.495,381.166,337.814,383.437,335.864
		L383.437,335.864z M382.114,335.3c-0.86,0.854-0.387,1.416-2.001,2.424C379.463,337.198,380.409,336.332,382.114,335.3z
		 M367.47,348.461C368.831,346.145,371.579,346.108,367.47,348.461L367.47,348.461z M367.101,347.971
		c-0.807,0.49-1.455,0.675-1.747,0.243C366.525,347.093,366.751,347.645,367.101,347.971z M359.658,353.184
		c0.036-0.914,3.458-3.17,3.327-1.897C361.292,353,360.589,352.869,359.658,353.184l0.385,0.474c-0.349,0.3-0.666,0.6-0.394,0.702
		c-1.431-0.402-4.206,3.741-6.048,3.327C356.356,355.729,356.621,355.213,359.658,353.184z M362.01,352.465
		C364.767,351.226,360.324,354.379,362.01,352.465L362.01,352.465z M345.999,368.494
		C344.524,367.845,348.37,365.898,345.999,368.494L345.999,368.494z M345.761,364.78c-2.132,1.185,1.886-1.904,2.748-2.606
		C350.653,360.999,346.632,364.086,345.761,364.78z M352.608,362.383C350.719,365.086,347.368,366.125,352.608,362.383
		C352.714,361.121,355.936,360.127,352.608,362.383z M357.681,357.906C353.04,361.059,359.895,356.396,357.681,357.906
		L357.681,357.906z M365.875,351.307c0.525-0.353,0.469-0.547,0.402-0.705c2.403-0.526-4.785,4.374-6.637,6.12
		C361.661,354.36,364.213,352.343,365.875,351.307z M361.958,356.019l-0.386-0.464l1.169-0.949l0.375,0.474L361.958,356.019z
		 M364.503,353.194C366.944,351.447,360.889,355.785,364.503,353.194L364.503,353.194z M371.684,347.792
		c-1.187,0.792-1.578,0.15-3.282,1.864c2.967-1.478-0.555,1.203-1.782,2.596c-1.253-0.401,2.765-2.386,0.833-2.596l4.671-3.768
		C373.055,346.198,371.332,347.303,371.684,347.792z M372.161,344.678C372.037,345.968,368.85,346.934,372.161,344.678
		c-0.381-0.468-1.827,0.982-1.914-0.008c2.07-1.915,5.371-5.346,7.24-5.443c2.309-2.142,0.634,0.63,0,0l-5.873,4.732
		C372.597,343.684,373.766,343.001,372.161,344.678z M385.038,338.085c-4.242,0.439-9.278,7.328-11.736,6.856
		c4.685-3.888,9.357-6.82,15.062-11.271c0.581,0.64-1.474,1.843-1,2.501C386.767,336.303,383.851,337.601,385.038,338.085z
		 M388.891,334.417C391.558,333.057,386.607,336.364,388.891,334.417L388.891,334.417z M390.595,332.915l0.798-0.165
		c-0.037,1.236-1.431,0.542-2.046,0.998c-0.053-0.474,1.405-1.245,2.316-1.911C392.946,331.254,391.479,332.346,390.595,332.915z
		 M414.28,321.125l0.33,0.509l-1.245,0.826l-0.324-0.51L414.28,321.125z M405.711,331.238
		C407.992,330.236,403.708,333.459,405.711,331.238L405.711,331.238z M411.434,327.78l-0.333-0.511l1.245-0.842l0.328,0.526
		L411.434,327.78z M414.77,321.897C416.658,320.878,408.993,325.004,414.77,321.897L414.77,321.897z M415.068,319.509
		c-2.212,0.966,2.039-1.72,2.95-2.336C420.211,316.21,415.964,318.895,415.068,319.509z M504.029,319.704
		c0.72,0.604-3.064,0.945-2.336,1.545C499.325,321.618,502.677,320.045,504.029,319.704z M495.207,325.023
		C494.002,323.968,498.271,324.213,495.207,325.023C494.802,326.166,491.759,325.988,495.207,325.023z M488.921,327.411
		C491.53,326.794,486.577,328.683,488.921,327.411L488.921,327.411z M483.276,327.93C485.91,327.314,480.915,329.193,483.276,327.93
		L483.276,327.93z M474.163,334.047C476.339,333.399,472.154,335.969,474.163,334.047L474.163,334.047z M481.696,311.961
		C484.419,311.118,477.695,313.217,481.696,311.961L481.696,311.961z M479.889,314.926
		C479.679,314.04,482.731,314.155,479.889,314.926C479.485,316.069,476.273,315.945,479.889,314.926z M475.218,314.75l1.318-0.509
		c0.57,0.492-0.706,0.895-1.722,1.309L475.218,314.75z M474.728,313.645c0.421,0.879-3.864,2.247-4.32,2.477
		C470.884,315.121,473.674,314.437,474.728,313.645z M471.672,318.877C474.244,317.711,467.889,320.599,471.672,318.877
		L471.672,318.877z M467.492,313.197C470.145,312.207,465.124,314.839,467.492,313.197L467.492,313.197z M467.512,306.326
		c0.488,0.401-2.756,1.949-2.074,0.746l1.299-0.677L467.512,306.326z M465.841,306.182
		C468.527,305.166,463.428,307.853,465.841,306.182L465.841,306.182z M465.818,311.328
		C468.493,310.33,463.457,312.987,465.818,311.328L465.818,311.328z M462.999,308.704
		C465.695,307.685,460.611,310.362,462.999,308.704L462.999,308.704z M462.561,317.851c2.949-2.029,5.826-3.923,9.419-5.118
		c-3.372,1.931-7.628,4.485-11.809,6.724c0.011-0.369,1.175-0.842,1.001-1.211c-0.262-0.264-1.264,0.387-2.036,0.729
		C459.33,318.085,462.936,316.639,462.561,317.851z M469.143,315.069C472.569,313.681,462.857,317.622,469.143,315.069
		L469.143,315.069z M462.103,324.97c0.316-0.862,2.106-1.853,4.091-2.843l0.14,0.262
		C465.702,323.195,463.753,324.091,462.103,324.97z M464.772,325.619C467.369,324.636,462.48,327.216,464.772,325.619
		L464.772,325.619z M460.348,336.874C462.867,335.75,456.642,338.541,460.348,336.874L460.348,336.874z M459.103,322.073
		C461.426,321.109,454.211,324.144,459.103,322.073L459.103,322.073z M459.926,336.068c1.493-0.179,1.091-0.817,2.563-1.002
		C462.948,335.44,459.337,337.35,459.926,336.068z M462.807,323.212c0.084,0.565-0.756,1.186-2.215,1.863
		C459.556,324.583,461.733,323.865,462.807,323.212z M461.514,322.177C463.798,321.494,459.417,324.144,461.514,322.177
		L461.514,322.177z M462.857,320.098c0.616-0.308,0.662,0.077,0.896,0.22C463.156,320.632,463.104,320.247,462.857,320.098z
		 M456.31,322.871c0.559-1.326,8.894-4.765,10.569-5.907C463.762,319.141,457.625,322.407,456.31,322.871z M455.71,315.279
		l-0.771,0.07l-0.271-0.542c0.994-0.616,1.221-0.32,2.058-0.739C456.697,314.455,455.537,314.926,455.71,315.279z M456.607,315.489
		c0.14,0.738-1.385,1.536-2.413,1.635C454.204,316.639,455.678,316.042,456.607,315.489z M453.981,313.444
		C456.836,312.802,452.042,314.971,453.981,313.444L453.981,313.444z M452.868,316.105
		C455.571,315.076,450.506,317.745,452.868,316.105L452.868,316.105z M453.612,319.141c0.818,0.492-3.105,1.389-2.261,1.871
		c-1.371,0.778-0.8-0.782-1.354-0.992C451.306,319.596,452.774,319,453.612,319.141z M459.417,319.509
		c-1.316,1.771-3.214,1.914-6.171,3.599C453.781,322.037,457.576,320.705,459.417,319.509z M459.592,316.664
		c0.069,0.477-1.845,1.108-1.626,1.545l-0.761,0.073l-0.264-0.545C458.208,316.921,458.697,317.033,459.592,316.664z
		 M459.839,315.523C457.945,317.719,456.248,316.474,459.839,315.523L459.839,315.523z M455.608,327.708
		C455.835,327.991,454.783,328.35,455.608,327.708C454.877,326.567,458.012,326.34,455.608,327.708z M459.892,307.256
		c-0.09,1.226-2.759,1.528-4.144,3.213l0.377-0.896c-4.223,1.51-1.695,2.424-5.417,3.879
		C449.813,311.75,456.344,309.361,459.892,307.256z M449.788,313.251c-1.045,1.375-2.169,1.737-3.748,2.316
		C447.11,314.252,447.934,313.294,449.788,313.251z M448.726,320.685c0.166,0.818-1.177,1.783-2.599,2.74
		C445.873,321.988,446.653,322.073,448.726,320.685z M445.82,319.809C441.904,321.581,448.481,318.615,445.82,319.809
		L445.82,319.809z M447.803,312.593c0.465,0.332-0.246,0.771-1.027,1.22l-0.792,0.07
		C445.934,313.524,447.047,313.021,447.803,312.593z M443.826,316.052C446.539,315.013,441.422,317.711,443.826,316.052
		L443.826,316.052z M441.667,315.121c0.098-0.474,0.517-0.983,1.66-1.563C443.219,314.034,442.783,314.54,441.667,315.121z
		 M441.876,329.088l-1.281,0.666l-0.297-0.537l1.281-0.666L441.876,329.088z M443.835,312.942c-1.467,0.896-2.535,1.282-3.414,1.458
		c-0.924,0.756,0.858,1.24-1.371,2.1l0.213-1.15l-4.567,2.406c-0.313-1.511,3.828-1.986,5.726-3.355
		C440.08,314.015,444.415,311.61,443.835,312.942z M436.962,317.263C436.705,316.984,437.813,316.597,436.962,317.263
		C438.434,318.298,435.155,318.615,436.962,317.263z M434.609,332.21C437.455,331.579,432.749,333.686,434.609,332.21
		L434.609,332.21z M434.768,316.352C437.523,315.295,432.345,318.019,434.768,316.352L434.768,316.352z M438.434,307.537
		c1.338-0.423-0.244,0.509-1.19,0.982c0.155,0.405,0.314,0.809,1.112,0.456c-0.658,1.421-1.852-0.087-4.125,1.818
		C433.899,309.887,435.944,308.749,438.434,307.537z M421.398,315.505c0.553-1.545,8.139-5.054,10.489-5.881l0.14,0.263
		c0.755-0.437,1.914-0.929,1.846-1.308c2.895-1.149-1.546,2.124-1.846,1.308C429.15,312.12,423.319,314.762,421.398,315.505z
		 M433.75,317.571c0.227,0.622-1.318,1.438-2.95,2.238C430.555,319.194,432.117,318.369,433.75,317.571z M433.432,310.873
		C432.045,312.942,424.672,314.963,433.432,310.873L433.432,310.873z M433.845,319.24c0,0.464-1.494,1.078-2.45,1.622
		C431.221,320.167,432.782,319.351,433.845,319.24z M424.257,323.248l-0.307-0.524l2.116-0.773
		C426.025,322.686,425.373,323.039,424.257,323.248z M426.127,314.716C428.929,313.628,423.688,316.384,426.127,314.716
		L426.127,314.716z M429.746,313.505C423.643,316.015,431.748,312.663,429.746,313.505L429.746,313.505z M430.946,315.621
		C424.882,318.106,432.941,314.787,430.946,315.621L430.946,315.621z M431.168,330.588l0.307,0.526l-1.265,0.666l-0.305-0.526
		L431.168,330.588z M430.113,337.207c2.109-2.93,6.268-3.438,10.458-6.058C436.75,333.853,433.039,335.485,430.113,337.207z
		 M438.507,333.247C441.158,332.256,436.191,334.864,438.507,333.247L438.507,333.247z M440.174,336.155
		C442.974,335.54,438.332,337.629,440.174,336.155L440.174,336.155z M442.262,331.272c-0.596-0.958-1.122-0.376-0.885-1.579
		c0.941-0.51,3.432-0.395,2.527-1.334c1.061-0.403,1.011,0.563,2.818-0.781c-0.09-0.151,0.353-0.579,0.624-0.337l-0.624,0.337
		C444.931,328.831,443.072,330.114,442.262,331.272z M447.02,332.552l1.862-0.974C450.227,331.871,446.531,333.818,447.02,332.552z
		 M447.445,343.315c0.798-0.329,0.913,0.195,0.297,0.529C446.793,344.194,447.689,343.582,447.445,343.315z M448.498,343.799
		C451.077,342.842,446.276,345.352,448.498,343.799L448.498,343.799z M450.235,318.859
		C452.902,317.842,447.857,320.493,450.235,318.859L450.235,318.859z M451.077,342.789
		C450.58,344.266,448.69,342.913,451.077,342.789C450.832,342.509,451.867,342.157,451.077,342.789z M452.264,327.411
		C448.444,329.114,454.852,326.243,452.264,327.411L452.264,327.411z M452.289,342.157c0.579-0.305,0.649,0.08,0.887,0.213
		C452.588,342.666,452.516,342.279,452.289,342.157z M456.959,340.736l-0.151-0.281c-0.851,0.353-1.359,0.236-2.569,1.011
		c0.666-0.854,0.342-1.503-1.633-0.159c-0.421-0.534,2.069-1.253,2.878-1.87c-0.656,0.862-0.008,1.109,1.649,0.178
		c1.556-1.158-1.263-0.266,0.038-1.405c3.09-1.565-0.861,2.667,2.055,0.982C459.321,339.649,457.887,340.209,456.959,340.736z
		 M460.911,337.961c0.596-0.298,0.632,0.087,0.879,0.227C461.199,338.488,461.145,338.101,460.911,337.961z M464.666,336.332
		C467.167,335.206,460.977,337.988,464.666,336.332L464.666,336.332z M462.578,336.734c-2.106,0.648,2.021-1.389,2.897-1.86
		C467.589,334.232,463.473,336.277,462.578,336.734z M470.235,333.731C472.778,332.775,468,335.295,470.235,333.731L470.235,333.731
		z M467.363,335.592C463.675,337.243,469.845,334.466,467.363,335.592L467.363,335.592z M466.284,333.416
		c-0.424-1.29,5.66-3.003,6.285-4.354C473.472,329.693,469.242,332.116,466.284,333.416z M473.357,315.785
		C476.237,315.498,471.356,317.018,473.357,315.785L473.357,315.785z M482.462,315.579
		C482.697,316.893,478.537,316.737,482.462,315.579L482.462,315.579z M476.043,318.333
		C476.255,318.64,475.165,318.87,476.043,318.333C475.815,318.024,476.921,317.806,476.043,318.333z M476.463,327.672
		c-0.28-0.822,1.863-1.446,3.556-2.088C481.075,326.408,477.64,326.83,476.463,327.672z M481.97,318.036l-0.114-0.28l-1.426,0.208
		c-0.648,0.527-1.577,1.037-3.122,1.511c-0.177-0.639,1.389-1.21,3.011-1.792l0.111,0.281c0.494-0.244,0.67-0.526,0.424-0.806
		c0.915-0.247,1.413-0.07,2.722-0.711C483.962,317.018,483.417,317.542,481.97,318.036z M485.717,314.347
		C479.749,315.945,487.673,313.804,485.717,314.347L485.717,314.347z M488.026,314.437c-0.431,0.123-0.684,0.21-0.884,0.271
		C487.948,314.455,489.624,313.936,488.026,314.437z M487.735,321.046l1.281-0.492l0.756,0.033
		C490.248,321.046,487.035,322.115,487.735,321.046z M490.317,314.54c0.634-0.237,0.649,0.143,0.876,0.317
		C490.555,315.086,490.543,314.708,490.317,314.54z M494.794,318.351C496.689,318.717,492.372,318.491,494.794,318.351
		L494.794,318.351z M496.813,317.904c0.911-1.056,2.422-2.099,5.462-3.064C500.411,315.858,499.901,316.963,496.813,317.904z
		 M520.727,304.841C523.166,304.498,515.583,305.569,520.727,304.841L520.727,304.841z"/>
	<path fill="#FFFFFF" d="M555.139,305.147C551.222,305.832,557.798,304.694,555.139,305.147L555.139,305.147z"/>
	<path fill="#FFFFFF" d="M555.252,305.747C552.742,306.71,557.901,305.482,555.252,305.747L555.252,305.747z"/>
	<path fill="#FFFFFF" d="M547.78,295.985C550.24,295.616,542.654,296.738,547.78,295.985L547.78,295.985z"/>
	<path fill="#FFFFFF" d="M547.292,297.038C543.252,297.74,550.03,296.561,547.292,297.038L547.292,297.038z"/>
	<path fill="#FFFFFF" d="M548.711,307.317C546.333,308.662,550.977,307.237,548.711,307.317L548.711,307.317z"/>
	<path fill="#FFFFFF" d="M547.668,308.819C545.184,309.764,550.309,308.554,547.668,308.819L547.668,308.819z"/>
	<path fill="#FFFFFF" d="M544.218,295.895C541.602,296.881,546.974,295.605,544.218,295.895L544.218,295.895z"/>
	<path fill="#FFFFFF" d="M543.515,299.187C540.936,300.16,546.235,298.898,543.515,299.187L543.515,299.187z"/>
	<path fill="#FFFFFF" d="M543.549,308.851C541.059,309.82,546.218,308.588,543.549,308.851L543.549,308.851z"/>
	<path fill="#FFFFFF" d="M540.69,299.232C538.109,300.205,543.426,298.94,540.69,299.232L540.69,299.232z"/>
	<path fill="#FFFFFF" d="M541.848,307.385C537.897,308.063,544.518,306.937,541.848,307.385L541.848,307.385z"/>
	<path fill="#FFFFFF" d="M538.583,296.282C535.966,297.272,541.338,296.002,538.583,296.282L538.583,296.282z"/>
	<path fill="#FFFFFF" d="M539.548,300.443C540.477,300.031,539.392,300.093,539.548,300.443L539.548,300.443z"/>
	<path fill="#FFFFFF" d="M538.003,299.864c-2.214,0.175-1.556,0.332-4.058,0.956C533.957,301.338,538.221,300.328,538.003,299.864z"
		/>
	<path fill="#FFFFFF" d="M536.878,309.809C539.548,309.353,532.947,310.469,536.878,309.809L536.878,309.809z"/>
	<path fill="#FFFFFF" d="M533.139,297.572c-1.124,0.3-6.218,1.29-4.013,1.256C530.241,298.529,535.333,297.547,533.139,297.572z"/>
	<path fill="#FFFFFF" d="M533.28,300.977l0.666-0.157C533.736,300.512,533.226,300.812,533.28,300.977z"/>
	<path fill="#FFFFFF" d="M528.662,297.063c0.913-0.166,4.97-1.115,2.671-0.938C530.401,296.316,526.363,297.248,528.662,297.063z"/>
	<path fill="#FFFFFF" d="M529.258,293.808C532.947,293.324,522.534,294.684,529.258,293.808L529.258,293.808z"/>
	<path fill="#FFFFFF" d="M529.961,299.259C525.869,299.954,532.717,298.792,529.961,299.259L529.961,299.259z"/>
	<path fill="#FFFFFF" d="M532.947,310.731C530.454,311.662,535.629,310.452,532.947,310.731L532.947,310.731z"/>
	<path fill="#FFFFFF" d="M532.525,311.75C530.05,312.697,535.21,311.494,532.525,311.75L532.525,311.75z"/>
	<polygon fill="#FFFFFF" points="528.309,301.199 529.665,300.882 529.524,300.303 528.163,300.62 	"/>
	<path fill="#FFFFFF" d="M519.092,299.301c3.425-0.826,5.356-0.675,7.444-2.046C524.281,297.983,520.078,298.364,519.092,299.301z"
		/>
	<path fill="#FFFFFF" d="M528.135,310.905C529.143,311.627,531.522,309.783,528.135,310.905L528.135,310.905z"/>
	<path fill="#FFFFFF" d="M529.68,311.488C523.783,312.231,531.629,311.241,529.68,311.488L529.68,311.488z"/>
	<path fill="#FFFFFF" d="M524.526,295.229C521.885,296.203,527.329,294.929,524.526,295.229L524.526,295.229z"/>
	<path fill="#FFFFFF" d="M528.617,312.663C524.678,313.329,531.288,312.223,528.617,312.663L528.617,312.663z"/>
	<path fill="#FFFFFF" d="M528.135,310.905C526.74,310.133,526.345,312.346,528.135,310.905L528.135,310.905z"/>
	<path fill="#FFFFFF" d="M519.601,288.275C522.625,287.87,519.506,287.364,519.601,288.275L519.601,288.275z"/>
	<path fill="#FFFFFF" d="M521.806,292.146c-0.095,0.02-0.15,0.027-0.34,0.062c-0.547,0.089-0.768,0.123-0.986,0.168
		C520.867,292.306,521.428,292.208,521.806,292.146z"/>
	<path fill="#FFFFFF" d="M527.8,314.734C525.327,315.666,530.471,314.482,527.8,314.734L527.8,314.734z"/>
	<path fill="#FFFFFF" d="M521.588,295.292C518.969,296.265,524.431,294.984,521.588,295.292L521.588,295.292z"/>
	<path fill="#FFFFFF" d="M525.574,309.328c-0.975,0.229-5.426,1.142-3.214,1.052C523.318,310.149,527.795,309.249,525.574,309.328z"
		/>
	<path fill="#FFFFFF" d="M519.601,288.275C518.627,288.698,519.769,288.609,519.601,288.275L519.601,288.275z"/>
	<path fill="#FFFFFF" d="M522.568,301.301C519.999,302.252,525.344,301.014,522.568,301.301L522.568,301.301z"/>
	<path fill="#FFFFFF" d="M525.747,312.4C523.262,313.329,528.417,312.136,525.747,312.4L525.747,312.4z"/>
	<path fill="#FFFFFF" d="M519.619,293.568C520.587,293.157,519.461,293.237,519.619,293.568L519.619,293.568z"/>
	<path fill="#FFFFFF" d="M525.579,311.821C523.2,311.415,520.772,313.294,525.579,311.821L525.579,311.821z"/>
	<path fill="#FFFFFF" d="M519.619,293.568C516.653,293.965,519.737,294.49,519.619,293.568L519.619,293.568z"/>
	<path fill="#FFFFFF" d="M517.987,293.017c-2.264,0.719-7.768,1.256-7.418,2.704C512.315,294.437,518.903,293.384,517.987,293.017z"
		/>
	<path fill="#FFFFFF" d="M519.269,294.905c-1.017,0.289-2.601,0.498-2.688,0.938C518.336,295.465,518.908,295.895,519.269,294.905z"
		/>
	<path fill="#FFFFFF" d="M519.269,297.395C521.762,297.038,514.002,298.162,519.269,297.395L519.269,297.395z"/>
	<path fill="#FFFFFF" d="M523.183,310.81C520.815,312.136,525.484,310.731,523.183,310.81L523.183,310.81z"/>
	<path fill="#FFFFFF" d="M519.866,301.935c-2.266,0.352-9.19,2.389-7.917,2.686C513.949,303.355,521.129,302.234,519.866,301.935z"
		/>
	<path fill="#FFFFFF" d="M523.905,315.629c-0.951,0.229-5.354,1.107-3.161,1.034C521.693,316.447,526.088,315.55,523.905,315.629z"
		/>
	<path fill="#FFFFFF" d="M516.171,289.398c-0.238-0.185-0.201-0.559-0.896-0.419C515.51,289.171,515.476,289.541,516.171,289.398z"
		/>
	<path fill="#FFFFFF" d="M518.409,296.984c-0.228-0.193-0.213-0.579-0.879-0.428C517.76,296.746,517.743,297.116,518.409,296.984z"
		/>
	<path fill="#FFFFFF" d="M523.22,313.294C518.673,313.576,520.533,314.963,523.22,313.294L523.22,313.294z"/>
	<path fill="#FFFFFF" d="M510.911,276.917C506.505,277.708,513.896,276.392,510.911,276.917L510.911,276.917z"/>
	<path fill="#FFFFFF" d="M513.878,286.818C511.172,287.811,516.792,286.485,513.878,286.818L513.878,286.818z"/>
	<path fill="#FFFFFF" d="M518.234,301.375C512.088,302.18,520.25,301.112,518.234,301.375L518.234,301.375z"/>
	<path fill="#FFFFFF" d="M522.422,315.349C519.954,316.279,525.097,315.094,522.422,315.349L522.422,315.349z"/>
	<path fill="#FFFFFF" d="M513.607,288.441C510.911,289.433,516.512,288.117,513.607,288.441L513.607,288.441z"/>
	<path fill="#FFFFFF" d="M504.239,303.675c-1.147,1.614-4.544,1.298-7.6,3.896c5.176-1.492,15.625-6.812,21.155-7.654
		C512.511,299.204,507.821,304.139,504.239,303.675z"/>
	<path fill="#FFFFFF" d="M513.16,289.471C512.86,290.838,515.293,289.048,513.16,289.471L513.16,289.471z"/>
	<path fill="#FFFFFF" d="M515.547,297.317C513.026,297.161,517.515,297.916,515.547,297.317L515.547,297.317z"/>
	<path fill="#FFFFFF" d="M520.233,312.733C517.76,313.67,522.949,312.478,520.233,312.733L520.233,312.733z"/>
	<path fill="#FFFFFF" d="M509.701,280.64C506.942,281.659,512.667,280.303,509.701,280.64L509.701,280.64z"/>
	<path fill="#FFFFFF" d="M515.124,298.364C511.008,299.125,517.934,297.843,515.124,298.364L515.124,298.364z"/>
	<path fill="#FFFFFF" d="M511.151,290.293C508.542,291.575,513.965,289.759,511.151,290.293L511.151,290.293z"/>
	<path fill="#FFFFFF" d="M511.587,298.907c0.985-0.414,2.485-0.888,2.591-1.254C513.143,297.502,511.58,298.187,511.587,298.907z"/>
	<path fill="#FFFFFF" d="M517.655,313.468C515.248,314.779,520.25,312.836,517.655,313.468L517.655,313.468z"/>
	<path fill="#FFFFFF" d="M504.765,291.77c1.259-0.545,6.772-2.372,4.656-2.11C508.156,290.207,502.633,292.034,504.765,291.77z"/>
	<path fill="#FFFFFF" d="M510.946,296.881C508.427,298.229,513.694,296.203,510.946,296.881L510.946,296.881z"/>
	<path fill="#FFFFFF" d="M516.742,315.121c-1.326,0.606-6.794,2.378-4.953,2.249C513.125,316.763,518.583,314.979,516.742,315.121z"
		/>
	<path fill="#FFFFFF" d="M504.925,280.34C502.275,281.728,507.788,279.622,504.925,280.34L504.925,280.34z"/>
	<path fill="#FFFFFF" d="M508.427,291.333l-2.791,0.751C504.801,293.315,508.814,291.77,508.427,291.333z"/>
	<path fill="#FFFFFF" d="M510.843,298.862c-1.667,0.402-7.376,2.09-4.46,2.373C506.91,300.18,511.201,299.954,510.843,298.862z"/>
	<path fill="#FFFFFF" d="M510.457,299.986C507.96,301.338,513.185,299.32,510.457,299.986L510.457,299.986z"/>
	<path fill="#FFFFFF" d="M511.57,303.462C509.103,304.781,514.273,302.796,511.57,303.462L511.57,303.462z"/>
	<path fill="#FFFFFF" d="M512.228,305.482C509.771,306.808,514.915,304.833,512.228,305.482L512.228,305.482z"/>
	<path fill="#FFFFFF" d="M502.801,283.431C506.576,282.333,503.328,282.228,502.801,283.431L502.801,283.431z"/>
	<path fill="#FFFFFF" d="M508.667,296.774C511.403,295.913,504.642,298.043,508.667,296.774L508.667,296.774z"/>
	<path fill="#FFFFFF" d="M514.573,314.979C515.433,314.462,514.397,314.664,514.573,314.979L514.573,314.979z"/>
	<path fill="#FFFFFF" d="M474.146,288.177c3.794-1.409,5.988-2.658,8.481-3.236c5.373-2.563,11.309-4.437,19.672-7.833l-0.098-0.279
		c-5.317,1.74-11.182,4.091-19.084,7.269c0.705-0.685,0.105-0.545-0.324-0.845c-4.265,1.565-3.099,2.933-7.575,3.548
		C474.41,287.256,473.919,287.713,474.146,288.177z"/>
	<path fill="#FFFFFF" d="M502.767,278.569c-2.776,1.262-7.61,2.473-9.053,3.771C497.692,280.919,499.684,281.007,502.767,278.569z"
		/>
	<path fill="#FFFFFF" d="M497.131,282.991c-0.813,1.896,5.87-1.176,6.486-1.826C501.429,281.042,497.92,283.835,497.131,282.991z"/>
	<path fill="#FFFFFF" d="M514.573,314.979l-1.888,0.739C512.651,316.295,515.448,315.785,514.573,314.979z"/>
	<path fill="#FFFFFF" d="M507.631,298.162C510.051,297.458,502.509,299.633,507.631,298.162L507.631,298.162z"/>
	<path fill="#FFFFFF" d="M513.976,317.499C511.598,318.808,516.566,316.876,513.976,317.499L513.976,317.499z"/>
	<path fill="#FFFFFF" d="M500.59,283.941c-0.829,1.122,2.65-0.057,2.211-0.51L502,283.396L500.59,283.941z"/>
	<path fill="#FFFFFF" d="M498.71,285.307c-2.845,1.001-1.914,1.461-4.063,1.88l0.297,0.861c1.432-0.245,6.425-2.344,8.227-3.47
		C501.553,284.948,499.342,285.852,498.71,285.307z"/>
	<path fill="#FFFFFF" d="M505.128,297.474c0.655-0.227,0.638,0.158,0.885,0.327C508.594,296.808,505.689,296.248,505.128,297.474z"
		/>
	<path fill="#FFFFFF" d="M511.44,311.968C509.016,313.284,514.073,311.328,511.44,311.968L511.44,311.968z"/>
	<path fill="#FFFFFF" d="M505.717,294.647c-2.653,1.231-7.304,2.379-8.667,3.638c0.826-0.273,1.632-0.51,1.553,0.068
		c-1.438,0.792-5.423,1.493-4.502,2.378c3.494-1.673,5.415-1.656,7.2-3.414c-0.818,0.263-1.909,0.789-2.136,0.492
		C500.168,296.352,506.645,295.542,505.717,294.647z"/>
	<path fill="#FFFFFF" d="M508.005,301.583c-0.218-0.158-0.218-0.562-0.851-0.324C507.374,301.425,507.364,301.823,508.005,301.583z"
		/>
	<path fill="#FFFFFF" d="M512.046,315.965l0.639-0.247C512.455,315.436,511.985,315.814,512.046,315.965z"/>
	<path fill="#FFFFFF" d="M499.026,281.604C502.038,280.78,498.885,280.69,499.026,281.604L499.026,281.604z"/>
	<path fill="#FFFFFF" d="M506.013,297.801C502.767,298.688,507.171,298.877,506.013,297.801L506.013,297.801z"/>
	<path fill="#FFFFFF" d="M512.046,315.965C511.172,316.508,512.228,316.295,512.046,315.965L512.046,315.965z"/>
	<path fill="#FFFFFF" d="M504.749,296.334C503.68,295.755,501.289,298.002,504.749,296.334L504.749,296.334z"/>
	<path fill="#FFFFFF" d="M506.987,305.22C503.031,306.465,509.672,304.374,506.987,305.22L506.987,305.22z"/>
	<path fill="#FFFFFF" d="M499.026,281.604C498.077,282.185,499.235,281.93,499.026,281.604L499.026,281.604z"/>
	<path fill="#FFFFFF" d="M499.308,284.763C500.255,284.184,499.129,284.431,499.308,284.763L499.308,284.763z"/>
	<path fill="#FFFFFF" d="M501.659,293.931C503.133,294.518,503.467,292.181,501.659,293.931L501.659,293.931z"/>
	<path fill="#FFFFFF" d="M505.257,302.304C502.767,303.638,507.998,301.638,505.257,302.304L505.257,302.304z"/>
	<path fill="#FFFFFF" d="M508.974,313.242C506.568,314.56,511.615,312.601,508.974,313.242L508.974,313.242z"/>
	<path fill="#FFFFFF" d="M499.308,284.763c-0.615,0.178-0.626,0.353-0.598,0.544C499.325,285.133,499.325,284.941,499.308,284.763z"
		/>
	<path fill="#FFFFFF" d="M502.152,295.369C499.604,296.721,504.925,294.684,502.152,295.369L502.152,295.369z"/>
	<path fill="#FFFFFF" d="M503.544,301.663C503.852,302.989,506.189,300.743,503.544,301.663L503.544,301.663z"/>
	<path fill="#FFFFFF" d="M497.692,295.773c1.685-0.597,3.265-1.203,3.967-1.842l-0.105-0.292
		C499.761,294.35,497.518,295.016,497.692,295.773z"/>
	<path fill="#FFFFFF" d="M493.751,275.497C488.272,277.09,496.36,274.74,493.751,275.497L493.751,275.497z"/>
	<path fill="#FFFFFF" d="M499.914,293.304C497.323,294.667,502.694,292.613,499.914,293.304L499.914,293.304z"/>
	<path fill="#FFFFFF" d="M503.276,303.068C499.29,304.324,505.997,302.217,503.276,303.068L503.276,303.068z"/>
	<path fill="#FFFFFF" d="M505.068,308.238l0.103,0.281C505.891,308.185,505.425,308.097,505.068,308.238z"/>
	<path fill="#FFFFFF" d="M496.426,285.519C493.796,286.908,499.29,284.818,496.426,285.519L496.426,285.519z"/>
	<path fill="#FFFFFF" d="M505.17,308.519C504.294,309.064,505.355,308.851,505.17,308.519L505.17,308.519z"/>
	<path fill="#FFFFFF" d="M491.496,307.906l3.948-1.511c-0.21-1.861,4.642-1.984,6.881-3.935c-0.245-0.912-2.3-0.087-4.298,0.668
		c-0.229-0.35,2.403-1.894,0.263-1.385c-0.158,0.526-0.598,0.174-1.337,0.49c1.124,1.65-5.038,3.282-8.445,5.846
		c3.19-0.966,4.163-1.809,6.067-2.001C495.223,306.608,488.827,308.219,491.496,307.906z M498.234,303.7
		C500.193,304.042,495.76,303.86,498.234,303.7L498.234,303.7z"/>
	<path fill="#FFFFFF" d="M503.17,307.01C500.73,307.167,505.073,307.379,503.17,307.01L503.17,307.01z"/>
	<path fill="#FFFFFF" d="M503.22,315.456C504.925,315.797,507.2,313.558,503.22,315.456L503.22,315.456z"/>
	<path fill="#FFFFFF" d="M497.288,294.63C498.216,294.078,497.095,294.318,497.288,294.63L497.288,294.63z"/>
	<path fill="#FFFFFF" d="M490.457,299.198l-4.406,2.65c3.426-1.476,12.134-4.258,12.044-4.925
		C495.744,297.502,490.986,300.365,490.457,299.198z"/>
	<path fill="#FFFFFF" d="M507.234,322.707C503.458,323.881,509.808,321.905,507.234,322.707L507.234,322.707z"/>
	<path fill="#FFFFFF" d="M490.159,276.856C485.849,278.234,493.09,275.924,490.159,276.856L490.159,276.856z"/>
	<path fill="#FFFFFF" d="M492.413,283.158c0.715-0.271,0.705-0.833-0.2-0.571C492.409,282.877,491.353,283.42,492.413,283.158z"/>
	<path fill="#FFFFFF" d="M494.647,287.187C494.215,286.381,491.854,288.558,494.647,287.187L494.647,287.187z"/>
	<path fill="#FFFFFF" d="M494.944,288.048C491.966,288.872,495.112,288.951,494.944,288.048L494.944,288.048z"/>
	<path fill="#FFFFFF" d="M497.288,294.63C493.575,295.703,496.796,295.807,497.288,294.63L497.288,294.63z"/>
	<path fill="#FFFFFF" d="M494.794,292.017C492.212,293.366,497.64,291.295,494.794,292.017L494.794,292.017z"/>
	<path fill="#FFFFFF" d="M496.297,294.036l-0.677,0.262C495.855,294.56,496.36,294.194,496.297,294.036z"/>
	<path fill="#FFFFFF" d="M488.239,287.03c2.238-0.386,2.301-1.141,4.292-1.317C493.214,284.421,488.087,286.587,488.239,287.03z"/>
	<path fill="#FFFFFF" d="M495.547,296.265C493.18,297.983,497.955,295.826,495.547,296.265L495.547,296.265z"/>
	<path fill="#FFFFFF" d="M501.922,317.912C505.476,317.448,502.994,315.945,501.922,317.912L501.922,317.912z"/>
	<path fill="#FFFFFF" d="M490.432,301.154c2.748-1.492,5.267-1.709,5.838-2.888C494.143,299.222,490.317,300.125,490.432,301.154z"
		/>
	<path fill="#FFFFFF" d="M489.298,289.873C491.143,290.171,493.617,287.853,489.298,289.873L489.298,289.873z"/>
	<path fill="#FFFFFF" d="M493.784,295.65C489.676,296.942,496.586,294.771,493.784,295.65L493.784,295.65z"/>
	<path fill="#FFFFFF" d="M504.116,323.9C500.343,325.076,506.679,323.108,504.116,323.9L504.116,323.9z"/>
	<path fill="#FFFFFF" d="M488.81,284.209C486.149,285.61,491.702,283.483,488.81,284.209L488.81,284.209z"/>
	<path fill="#FFFFFF" d="M492.486,298.426C489.94,299.774,495.284,297.732,492.486,298.426L492.486,298.426z"/>
	<path fill="#FFFFFF" d="M495.049,303.289c-1.108,0.621-4.038,1.147-3.872,1.807C493.443,303.955,494.874,304.526,495.049,303.289z"
		/>
	<path fill="#FFFFFF" d="M496.639,307.571l-0.649,0.257C496.225,308.09,496.709,307.71,496.639,307.571z"/>
	<path fill="#FFFFFF" d="M493.549,301.269l-2.793,0.743C489.974,303.215,493.954,301.681,493.549,301.269z"/>
	<path fill="#FFFFFF" d="M499.272,318.595C496.884,319.888,501.914,317.957,499.272,318.595L499.272,318.595z"/>
	<path fill="#FFFFFF" d="M485.981,285.29c0.168-0.05,0.176-0.05,0.255-0.077C485.26,285.502,482.016,286.448,485.981,285.29z"/>
	<path fill="#FFFFFF" d="M490.483,297.23C487.931,298.582,493.302,296.527,490.483,297.23L490.483,297.23z"/>
	<path fill="#FFFFFF" d="M485.717,286.695C488.587,285.774,481.486,288.03,485.717,286.695L485.717,286.695z"/>
	<path fill="#FFFFFF" d="M487.729,294.05C481.486,295.79,489.772,293.489,487.729,294.05L487.729,294.05z"/>
	<path fill="#FFFFFF" d="M487.948,294.63C490.441,293.903,482.665,296.15,487.948,294.63L487.948,294.63z"/>
	<path fill="#FFFFFF" d="M491.827,308.756C492.705,308.219,491.619,308.449,491.827,308.756L491.827,308.756z"/>
	<path fill="#FFFFFF" d="M482.627,284.941C481.662,285.519,482.838,285.257,482.627,284.941L482.627,284.941z"/>
	<path fill="#FFFFFF" d="M482.927,287.766C485.797,286.845,478.668,289.109,482.927,287.766L482.927,287.766z"/>
	<path fill="#FFFFFF" d="M481.769,286.908C479.125,288.295,484.681,286.168,481.769,286.908L481.769,286.908z"/>
	<path fill="#FFFFFF" d="M488.176,303.323C490.03,301.601,485.613,303.742,488.176,303.323L488.176,303.323z"/>
	<path fill="#FFFFFF" d="M489.061,305.589c-0.974,0.366-5.485,1.964-3.222,1.545C486.823,306.764,491.335,305.174,489.061,305.589z"
		/>
	<path fill="#FFFFFF" d="M488.614,306.395C486.124,307.729,491.373,305.729,488.614,306.395L488.614,306.395z"/>
	<path fill="#FFFFFF" d="M483.823,296.203C481.259,297.555,486.666,295.493,483.823,296.203L483.823,296.203z"/>
	<path fill="#FFFFFF" d="M486.868,309.667c0.571,0.018,3.512-0.517,2.518-1.288C488.423,308.806,486.913,309.213,486.868,309.667z"
		/>
	<path fill="#FFFFFF" d="M494.093,322.205C491.722,323.487,496.745,321.581,494.093,322.205L494.093,322.205z"/>
	<path fill="#FFFFFF" d="M493.012,321.318C491.064,322.529,495.76,321.072,493.012,321.318L493.012,321.318z"/>
	<path fill="#FFFFFF" d="M478.958,287.976C476.307,289.364,481.856,287.24,478.958,287.976L478.958,287.976z"/>
	<path fill="#FFFFFF" d="M484.033,302.62C485.578,303.199,485.77,300.899,484.033,302.62L484.033,302.62z"/>
	<path fill="#FFFFFF" d="M481.539,296.421C475.289,298.142,483.593,295.863,481.539,296.421L481.539,296.421z"/>
	<path fill="#FFFFFF" d="M483.812,302.057C484.718,301.514,483.593,301.744,483.812,302.057L483.812,302.057z"/>
	<path fill="#FFFFFF" d="M477.633,296.614C482.206,295.666,479.555,294.86,477.633,296.614L477.633,296.614z"/>
	<path fill="#FFFFFF" d="M475.218,286.8C476.183,286.231,475.007,286.485,475.218,286.8L475.218,286.8z"/>
	<path fill="#FFFFFF" d="M476.607,290.171C473.973,291.557,479.502,289.433,476.607,290.171L476.607,290.171z"/>
	<path fill="#FFFFFF" d="M490.466,322.284c-2.643,0.722-4.54,2.213-5.748,2.177C485.57,325.372,491.254,322.563,490.466,322.284z"/>
	<path fill="#FFFFFF" d="M479.363,298.873C475.218,300.18,482.18,297.983,479.363,298.873L479.363,298.873z"/>
	<path fill="#FFFFFF" d="M481.786,304.781C479.272,306.114,484.594,304.094,481.786,304.781L481.786,304.781z"/>
	<path fill="#FFFFFF" d="M471.924,290.664c1.198-0.773,2.714-0.07,2.804-1.07c-0.879,0.252-0.565-0.14-0.229-0.562
		C472.865,289.566,471.891,290.109,471.924,290.664z"/>
	<path fill="#FFFFFF" d="M474.807,301.259c-0.801-0.569,3.318-1.026,2.519-1.608C475.85,300.031,472.216,301.699,474.807,301.259z"
		/>
	<path fill="#FFFFFF" d="M473.375,297.916C476.22,297.01,469.196,299.232,473.375,297.916L473.375,297.916z"/>
	<path fill="#FFFFFF" d="M481.856,317.755l0.656-0.245C482.258,317.227,481.786,317.597,481.856,317.755z"/>
	<path fill="#FFFFFF" d="M467.713,292.28C465.081,293.666,470.62,291.542,467.713,292.28L467.713,292.28z"/>
	<path fill="#FFFFFF" d="M470.987,299.793C468.423,301.154,473.849,299.092,470.987,299.793L470.987,299.793z"/>
	<path fill="#FFFFFF" d="M471.6,301.199C469.037,302.549,474.446,300.478,471.6,301.199L471.6,301.199z"/>
	<path fill="#FFFFFF" d="M484.718,332.889C482.382,334.153,487.315,332.301,484.718,332.889L484.718,332.889z"/>
	<path fill="#FFFFFF" d="M466.308,292.815c-4.065,0.551-7.261,3.942-12.314,5.538C454.815,299.546,465.265,293.771,466.308,292.815z
		"/>
	<path fill="#FFFFFF" d="M469.372,299.774C464.517,300.82,466.658,301.883,469.372,299.774L469.372,299.774z"/>
	<path fill="#FFFFFF" d="M469.545,301.98C466.982,303.331,472.391,301.259,469.545,301.98L469.545,301.98z"/>
	<path fill="#FFFFFF" d="M483.857,332.581C483.006,333.099,484.057,332.889,483.857,332.581L483.857,332.581z"/>
	<path fill="#FFFFFF" d="M463.174,289.459C460.506,290.864,466.115,288.714,463.174,289.459L463.174,289.459z"/>
	<path fill="#FFFFFF" d="M469.179,301.144c-1.161,0.624-2.793,1.221-3.178,1.869C467.705,302.399,469.356,301.794,469.179,301.144z"
		/>
	<path fill="#FFFFFF" d="M463.072,291.138C465.984,290.199,458.784,292.506,463.072,291.138L463.072,291.138z"/>
	<path fill="#FFFFFF" d="M463.42,295.542c-0.633,0.186-0.624,0.37-0.563,0.565C463.457,295.913,463.457,295.728,463.42,295.542z"/>
	<path fill="#FFFFFF" d="M455.257,284.994C452.694,286.731,458.1,283.905,455.257,284.994L455.257,284.994z"/>
	<path fill="#FFFFFF" d="M456.153,286.924C453.607,288.662,458.979,285.844,456.153,286.924L456.153,286.924z"/>
	<path fill="#FFFFFF" d="M463.788,305.203l0.246,0.544C464.826,305.252,464.43,304.868,463.788,305.203z"/>
	<path fill="#FFFFFF" d="M451.29,287.417C453.977,287.055,452.868,285.318,451.29,287.417L451.29,287.417z"/>
	<path fill="#FFFFFF" d="M453.781,290.909l1.354-0.702c0.034-0.753-1.215-0.017-2.284,0.51l0.123,0.271L453.781,290.909z"/>
	<path fill="#FFFFFF" d="M459.629,304.99C457.206,306.658,462.34,303.955,459.629,304.99L459.629,304.99z"/>
	<path fill="#FFFFFF" d="M451.29,287.417C450.375,288.1,451.498,287.713,451.29,287.417L451.29,287.417z"/>
	<path fill="#FFFFFF" d="M450.867,288.317C448.313,290.058,453.694,287.24,450.867,288.317L450.867,288.317z"/>
	<path fill="#FFFFFF" d="M449.901,289.857l-0.298,1.176l2.722-1.422C452.449,288.645,450.674,289.82,449.901,289.857z"/>
	<path fill="#FFFFFF" d="M445.739,284.833C448.726,284.221,448.285,282.254,445.739,284.833L445.739,284.833z"/>
	<path fill="#FFFFFF" d="M452.309,291.348C449.622,291.709,450.724,293.426,452.309,291.348L452.309,291.348z"/>
	<path fill="#FFFFFF" d="M474.079,338.569C471.882,340.123,476.569,337.637,474.079,338.569L474.079,338.569z"/>
	<path fill="#FFFFFF" d="M445.952,290.556c0.911-0.429,4.957-2.553,2.591-1.702C447.636,289.275,443.601,291.402,445.952,290.556z"
		/>
	<path fill="#FFFFFF" d="M451.709,295.42C447.636,297.283,454.486,294.158,451.709,295.42L451.709,295.42z"/>
	<path fill="#FFFFFF" d="M453.485,307.525l0.409,0.828c2.108-0.949,2.494-1.745,2.853-2.537l-2.087,0.755
		C454.939,307.072,454.441,307.414,453.485,307.525z"/>
	<path fill="#FFFFFF" d="M445.739,284.833C444.809,285.537,445.984,285.125,445.739,284.833L445.739,284.833z"/>
	<path fill="#FFFFFF" d="M445.022,286.924C446.661,287.277,446.757,284.903,445.022,286.924L445.022,286.924z"/>
	<path fill="#FFFFFF" d="M445.984,287.117C439.128,290.199,444.776,289.154,445.984,287.117L445.984,287.117z"/>
	<path fill="#FFFFFF" d="M447.971,292.93c0.263,0.122,0.279,0.526,0.945,0.189C448.67,292.98,448.637,292.588,447.971,292.93z"/>
	<path fill="#FFFFFF" d="M444.352,287.282l0.67-0.357C444.749,286.695,444.267,287.134,444.352,287.282z"/>
	<path fill="#FFFFFF" d="M446.091,290.822C443.561,292.56,448.934,289.733,446.091,290.822L446.091,290.822z"/>
	<path fill="#FFFFFF" d="M444.352,287.282l-2.878,1.171C440.735,289.795,444.809,287.643,444.352,287.282z"/>
	<path fill="#FFFFFF" d="M448.363,297.177C445.862,298.89,451.167,296.108,448.363,297.177L448.363,297.177z"/>
	<path fill="#FFFFFF" d="M468,341.441C465.807,343.001,470.503,340.509,468,341.441L468,341.441z"/>
	<path fill="#FFFFFF" d="M442.134,293.242C439.613,294.966,444.986,292.139,442.134,293.242L442.134,293.242z"/>
	<path fill="#FFFFFF" d="M440.648,295.395C442.545,295.448,444.843,292.805,440.648,295.395L440.648,295.395z"/>
	<path fill="#FFFFFF" d="M438.841,288.46C441.687,287.155,434.646,290.375,438.841,288.46L438.841,288.46z"/>
	<path fill="#FFFFFF" d="M441.132,301.322c0.903-0.423,4.862-2.494,2.535-1.677C442.772,300.077,438.799,302.163,441.132,301.322z"
		/>
	<path fill="#FFFFFF" d="M437.332,290.629C433.151,292.533,440.174,289.331,437.332,290.629L437.332,290.629z"/>
	<path fill="#FFFFFF" d="M464.123,344.176c-1.388,0.863-1.562,0.194-3.125,1.3C460.513,346.756,464.439,344.563,464.123,344.176z"/>
	<path fill="#FFFFFF" d="M440.159,299.432c-0.264-0.123-0.309-0.518-0.969-0.185C439.453,299.388,439.49,299.774,440.159,299.432z"
		/>
	<path fill="#FFFFFF" d="M432.633,291.717c0.887-0.447,1.134-0.143,2.202-0.809l-0.419-0.824l-2.071,1.099L432.633,291.717z"/>
	<path fill="#FFFFFF" d="M430.079,286.871C427.482,288.645,433.011,285.729,430.079,286.871L430.079,286.871z"/>
	<path fill="#FFFFFF" d="M429.956,288.33C432.819,287.002,425.708,290.259,429.956,288.33L429.956,288.33z"/>
	<path fill="#FFFFFF" d="M436.638,300.944C434.141,302.639,439.453,299.846,436.638,300.944L436.638,300.944z"/>
	<path fill="#FFFFFF" d="M429.966,290.03C427.375,291.788,432.872,288.888,429.966,290.03L429.966,290.03z"/>
	<path fill="#FFFFFF" d="M432.675,295.141C430.132,296.861,435.546,294.015,432.675,295.141L432.675,295.141z"/>
	<path fill="#FFFFFF" d="M456.808,340.455l0.607-0.314C457.144,339.901,456.729,340.315,456.808,340.455z"/>
	<path fill="#FFFFFF" d="M427.981,287.976C422.566,290.33,430.559,286.871,427.981,287.976L427.981,287.976z"/>
	<path fill="#FFFFFF" d="M427.281,304.498c2.518-0.613,6.1-2.264,7.969-4.544C430.465,302.374,430.203,302.567,427.281,304.498z"/>
	<path fill="#FFFFFF" d="M435.995,302.989C433.52,304.71,438.821,301.909,435.995,302.989L435.995,302.989z"/>
	<path fill="#FFFFFF" d="M436.962,303.166l-2.02,1.068C434.388,305.527,438.368,303.428,436.962,303.166z"/>
	<path fill="#FFFFFF" d="M429.167,291.833C431.249,290.954,422.785,294.49,429.167,291.833L429.167,291.833z"/>
	<path fill="#FFFFFF" d="M428.568,297.3l0.3,0.526c0.843,0.677,4.317-2.675,1.754-1.607
		C430.587,296.819,429.71,296.614,428.568,297.3z"/>
	<path fill="#FFFFFF" d="M416.965,294.138c2.019-1.2,9.137-4.482,7.522-4.318C422.479,291.015,415.349,294.333,416.965,294.138z"/>
	<path fill="#FFFFFF" d="M425.215,291.163C422.653,292.917,428.149,290.014,425.215,291.163L425.215,291.163z"/>
	<path fill="#FFFFFF" d="M431.922,303.428C425.717,306.008,433.958,302.583,431.922,303.428L431.922,303.428z"/>
	<path fill="#FFFFFF" d="M430.555,307.237c-0.265-0.123-0.32-0.51-0.969-0.182C429.85,307.195,429.906,307.571,430.555,307.237z"/>
	<path fill="#FFFFFF" d="M427.869,305.552C425.146,305.956,426.391,307.616,427.869,305.552L427.869,305.552z"/>
	<path fill="#FFFFFF" d="M428.463,306.625C424.27,308.554,428.703,308.08,428.463,306.625L428.463,306.625z"/>
	<path fill="#FFFFFF" d="M426.447,304.586c-3.459,1.826-5.286,2.859-6.604,3.828l0.157,0.263c2.267-1.616,5.636-2.291,6.078-3.206
		C424.662,305.929,426.726,304.937,426.447,304.586z"/>
	<path fill="#FFFFFF" d="M426.464,310.765C425.875,310.046,423.848,312.478,426.464,310.765L426.464,310.765z"/>
	<path fill="#FFFFFF" d="M416.7,298.406C419.263,297.3,411.311,300.743,416.7,298.406L416.7,298.406z"/>
	<path fill="#FFFFFF" d="M423.127,312.523C424.006,311.857,422.865,312.244,423.127,312.523L423.127,312.523z"/>
	<path fill="#FFFFFF" d="M412.629,296.089C408.378,298.064,415.517,294.754,412.629,296.089L412.629,296.089z"/>
	<path fill="#FFFFFF" d="M417.051,308.168c1.106-0.123,2.714-0.968,2.557-1.685C418.614,307.072,417.051,307.71,417.051,308.168z"/>
	<path fill="#FFFFFF" d="M419.842,308.415l-0.14-0.262l-4.67,2.624l0.316,0.515c0.598-0.19,2.003-0.719,1.967-1.192l2.01-1.063
		C419.263,308.851,419.247,308.677,419.842,308.415z"/>
	<path fill="#FFFFFF" d="M420,308.677l-0.674,0.358C419.632,309.274,420.089,308.834,420,308.677z"/>
	<path fill="#FFFFFF" d="M413.241,300.233C410.687,301.988,416.149,299.092,413.241,300.233L413.241,300.233z"/>
	<path fill="#FFFFFF" d="M416.602,311.907c1.137-0.771,1.59-0.455,2.821-1.203l0.369-0.879
		C418.903,310.486,416.113,311.348,416.602,311.907z"/>
	<path fill="#FFFFFF" d="M409.766,298.996C407.29,300.865,412.646,297.748,409.766,298.996L409.766,298.996z"/>
	<path fill="#FFFFFF" d="M411.874,311.415c1.228-1.019,4.326-2.49,4.342-3.14C414.856,308.379,412.732,310.433,411.874,311.415z"/>
	<path fill="#FFFFFF" d="M408.476,298.353C402.443,301.625,410.453,297.3,408.476,298.353L408.476,298.353z"/>
	<path fill="#FFFFFF" d="M407.967,300.53c-0.447,0.195-2.905,1.011-2.592,1.723C406.431,301.199,408.001,301.583,407.967,300.53z"/>
	<path fill="#FFFFFF" d="M406.976,301.909C404.587,303.92,409.729,300.512,406.976,301.909L406.976,301.909z"/>
	<path fill="#FFFFFF" d="M404.727,301.215c-2.424,0.607-7.394,4.521-10.41,6.917l0.164,0.263
		C396.947,305.852,401.603,304.147,404.727,301.215z"/>
	<path fill="#FFFFFF" d="M404.375,303.638C406.797,302.287,399.303,306.465,404.375,303.638L404.375,303.638z"/>
	<path fill="#FFFFFF" d="M406.976,316.508c1.098,0.229,4.782-2.169,4.433-2.95c-4.153,1.528-9.85,6.627-15.986,10.286
		C398.774,323.091,403.781,319.334,406.976,316.508z"/>
	<path fill="#FFFFFF" d="M407.729,309.081c-1.754,0.941-2.23,1.615-1.44,2.037C408.124,310.149,407.203,309.764,407.729,309.081z"/>
	<path fill="#FFFFFF" d="M399.863,300.792C397.476,302.813,402.627,299.388,399.863,300.792L399.863,300.792z"/>
	<path fill="#FFFFFF" d="M407.265,314.118C404.939,316.087,409.958,312.75,407.265,314.118L407.265,314.118z"/>
	<path fill="#FFFFFF" d="M399.67,307.87C398.073,310.065,402.241,306.748,399.67,307.87L399.67,307.87z"/>
	<path fill="#FFFFFF" d="M400.163,308.642C397.808,310.625,402.911,307.219,400.163,308.642L400.163,308.642z"/>
	<path fill="#FFFFFF" d="M402.603,312.488c-0.86,0.517-4.643,3.035-2.388,1.949C401.066,313.916,404.867,311.397,402.603,312.488z"
		/>
	<path fill="#FFFFFF" d="M404.709,315.814C402.409,317.782,407.423,314.437,404.709,315.814L404.709,315.814z"/>
	<path fill="#FFFFFF" d="M398.229,309.922C400.2,308.851,392.235,313.172,398.229,309.922L398.229,309.922z"/>
	<path fill="#FFFFFF" d="M400.671,312.31C399.845,313.082,400.943,312.573,400.671,312.31L400.671,312.31z"/>
	<path fill="#FFFFFF" d="M401.18,314.524C395.246,317.737,403.129,313.468,401.18,314.524L401.18,314.524z"/>
	<path fill="#FFFFFF" d="M391.014,303.042C388.591,305.08,393.807,301.621,391.014,303.042L391.014,303.042z"/>
	<path fill="#FFFFFF" d="M389.277,311.875c2.116-1.344,2.449-2.284,5.04-3.742C392.593,308.677,388.329,311.591,389.277,311.875z"/>
	<path fill="#FFFFFF" d="M403.761,324.126C405.675,323.091,397.916,327.287,403.761,324.126L403.761,324.126z"/>
	<path fill="#FFFFFF" d="M392.207,310.643C389.839,312.646,394.965,309.221,392.207,310.643L392.207,310.643z"/>
	<path fill="#FFFFFF" d="M399.998,326.637C402.603,325.102,396.151,328.904,399.998,326.637L399.998,326.637z"/>
	<path fill="#FFFFFF" d="M390.453,313.636C388.082,315.645,393.191,312.223,390.453,313.636L390.453,313.636z"/>
	<path fill="#FFFFFF" d="M392.165,317.612C389.487,318.291,390.84,319.843,392.165,317.612L392.165,317.612z"/>
	<path fill="#FFFFFF" d="M389.17,315.955C386.829,317.94,391.927,314.532,389.17,315.955L389.17,315.955z"/>
	<path fill="#FFFFFF" d="M388.189,315.875C385.835,317.879,390.954,314.462,388.189,315.875L388.189,315.875z"/>
	<path fill="#FFFFFF" d="M397.362,329.48C398.178,328.727,397.107,329.217,397.362,329.48L397.362,329.48z"/>
	<path fill="#FFFFFF" d="M382.446,308.764C384.904,307.361,377.287,311.662,382.446,308.764L382.446,308.764z"/>
	<path fill="#FFFFFF" d="M394.806,325.708C394.464,323.602,392.525,326.445,394.806,325.708L394.806,325.708z"/>
	<path fill="#FFFFFF" d="M383.641,317.457C389.54,313.015,381.964,317.19,383.641,317.457L383.641,317.457z"/>
	<path fill="#FFFFFF" d="M392.822,324.108C392.016,324.883,393.103,324.374,392.822,324.108L392.822,324.108z"/>
	<path fill="#FFFFFF" d="M385.917,316.664C381.948,319.017,388.608,315.069,385.917,316.664L385.917,316.664z"/>
	<path fill="#FFFFFF" d="M394.983,329.989C392.699,331.941,397.652,328.629,394.983,329.989L394.983,329.989z"/>
	<path fill="#FFFFFF" d="M385.958,318.106c-1.507,1.121-7.529,4.72-5.636,4.127C381.814,321.125,387.836,317.527,385.958,318.106z"
		/>
	<path fill="#FFFFFF" d="M391.155,327.059C393.948,325.549,390.76,326.235,391.155,327.059L391.155,327.059z"/>
	<path fill="#FFFFFF" d="M391.664,327.808c-0.028-0.362,1.143-0.994,0.913-1.345l-1.422,0.596l-0.633,0.423
		C390.698,327.869,390.909,328.261,391.664,327.808z"/>
	<path fill="#FFFFFF" d="M383.641,317.457C384.27,318.122,386.152,315.436,383.641,317.457L383.641,317.457z"/>
	<path fill="#FFFFFF" d="M382.603,315.955c-0.771,0.072-17.273,12.018-17.501,11.791c-0.335-0.387,6.477-3.934,2.86-2.67
		c-1.053,0.403-4.063,3.615-4.248,3.406l0.544,0.719C369.524,324.513,377.023,320.669,382.603,315.955z"/>
	<path fill="#FFFFFF" d="M384.64,331.044c0.09,1.563,3.968-0.912,4.954-2.218l-0.177-0.258c-1.521,0.341-1.036,0.911-3.15,2.106
		C386.196,330.114,385.449,330.554,384.64,331.044z"/>
	<path fill="#FFFFFF" d="M380.04,319.141C376.056,321.494,382.746,317.542,380.04,319.141L380.04,319.141z"/>
	<path fill="#FFFFFF" d="M379.743,320.062C377.374,322.073,382.5,318.651,379.743,320.062L379.743,320.062z"/>
	<path fill="#FFFFFF" d="M379.202,323.355c-0.284-0.098-0.37-0.484-1.003-0.062C378.495,323.38,378.584,323.766,379.202,323.355z"/>
	<path fill="#FFFFFF" d="M382.676,330.885C378.778,333.205,385.318,329.333,382.676,330.885L382.676,330.885z"/>
	<path fill="#FFFFFF" d="M372.843,318.472C370.473,320.475,375.652,317.018,372.843,318.472L372.843,318.472z"/>
	<polygon fill="#FFFFFF" points="376.625,325.076 377.918,324.213 377.567,323.721 376.276,324.583 	"/>
	<path fill="#FFFFFF" d="M372.58,327.426c-8.531,6.145-1.221,1.74,1.948-1.298C373.536,326.648,373.221,326.55,372.58,327.426z"/>
	<path fill="#FFFFFF" d="M367.666,319.387c-0.274-0.104-0.369-0.473-1.012-0.053C366.944,319.424,367.034,319.809,367.666,319.387z"
		/>
	<path fill="#FFFFFF" d="M370.313,325.656c-0.771,0.525-1.455,1.121-0.911,1.368c-7.83,5.952-1.826,2.546,1.274-0.885
		C369.86,326.621,370.069,326.139,370.313,325.656z"/>
	<path fill="#FFFFFF" d="M361.968,320.915c-2.3,2.035-9.413,7.145-8.402,7.145C355.865,326.022,362.975,320.931,361.968,320.915z"/>
	<path fill="#FFFFFF" d="M366.452,332.116C364.303,334.31,369.05,330.483,366.452,332.116L366.452,332.116z"/>
	<path fill="#FFFFFF" d="M357.621,334.557c3.397-3.023,4.549-2.74,6.638-5.356c-1.036,0.122-2.703,1.335-3.767,1.475
		C361.378,331.254,357.147,334.31,357.621,334.557z"/>
	<path fill="#FFFFFF" d="M364.213,330.413C366.488,328.869,359.428,333.67,364.213,330.413L364.213,330.413z"/>
	<path fill="#FFFFFF" d="M362.521,333.326C360.36,335.523,365.125,331.694,362.521,333.326L362.521,333.326z"/>
	<path fill="#FFFFFF" d="M361.185,332.852C359.024,335.049,363.793,331.209,361.185,332.852L361.185,332.852z"/>
	<path fill="#FFFFFF" d="M358.173,335.268C356.006,337.479,360.771,333.644,358.173,335.268L358.173,335.268z"/>
	<path fill="#FFFFFF" d="M349.088,343.737c2.891-1.824,16.294-13.361,2.828-2.648c-0.705,0.559-1.099,0.861-1.405,0.737
		C349.248,342.703,348.666,343.405,349.088,343.737z"/>
	<path fill="#FFFFFF" d="M352.143,328.798c-0.771,0.861-3.38,2.267-2.87,2.711C351.106,329.849,352.213,330.062,352.143,328.798z"/>
	<path fill="#FFFFFF" d="M348.747,342.089c1.256-4.41,5.802-2.943,7.469-6.813c-2.44,1.071-5.477,3.249-8.848,6.347
		C347.752,341.894,347.86,342.666,348.747,342.089z"/>
	<path fill="#FFFFFF" d="M360.676,350.798C364.66,348.058,361.387,349.041,360.676,350.798L360.676,350.798z"/>
	<path fill="#FFFFFF" d="M350.511,341.826C355.253,338.471,351.881,339.527,350.511,341.826L350.511,341.826z"/>
	<path fill="#FFFFFF" d="M327.459,349.504c3.37-3.615,15.644-12.29,19.18-16.273C340.724,338.488,330.661,345.118,327.459,349.504z"
		/>
	<path fill="#FFFFFF" d="M360.116,350.093C357.989,352.252,362.661,348.498,360.116,350.093L360.116,350.093z"/>
	<path fill="#FFFFFF" d="M358.326,351.525C360.565,350.006,353.653,354.71,358.326,351.525L358.326,351.525z"/>
	<path fill="#FFFFFF" d="M333.322,346.707c3.435-2.985,11.922-9.147,12.008-10.079C340.697,340.807,335.665,343.282,333.322,346.707
		z"/>
	<path fill="#FFFFFF" d="M356.97,351.049C354.867,353.202,359.534,349.435,356.97,351.049L356.97,351.049z"/>
	<path fill="#FFFFFF" d="M357.357,351.534c-1.21,1.071-6.441,4.88-4.527,4.038C354.04,354.484,359.271,350.68,357.357,351.534z"/>
	<path fill="#FFFFFF" d="M347.892,344.72C345.736,346.917,350.493,343.073,347.892,344.72L347.892,344.72z"/>
	<path fill="#FFFFFF" d="M348.279,345.187C350.8,343.371,344.551,347.865,348.279,345.187L348.279,345.187z"/>
	<path fill="#FFFFFF" d="M345.542,343.088c-1.667,1.81-1.772,0.817-2.791,1.491C339.845,348.524,346.947,342.543,345.542,343.088z"
		/>
	<path fill="#FFFFFF" d="M346.123,343.799C343.971,345.985,348.739,342.139,346.123,343.799L346.123,343.799z"/>
	<path fill="#FFFFFF" d="M354.786,354.379C352.69,356.529,357.349,352.773,354.786,354.379L354.786,354.379z"/>
	<path fill="#FFFFFF" d="M344.084,347.39c0.859-0.763,2.28-1.701,2.214-2.166C345.244,345.564,343.801,346.724,344.084,347.39z"/>
	<path fill="#FFFFFF" d="M339.766,344.632c-0.352,1.458,3.645-1.922,3.213-2.212C341.636,343.642,340.626,344.255,339.766,344.632z"
		/>
	<path fill="#FFFFFF" d="M344.919,344.776c-1.89,1.596-2.897,1.632-5.028,3.661c2.465-2.661-1.663,0.032-2.005,1.228
		c0.666-0.607,1.126-0.816,1.397-0.747c-0.01,0.702-2.88,2.3-2.601,2.899C338.309,350.621,343.127,346.892,344.919,344.776z"/>
	<path fill="#FFFFFF" d="M343.472,349.069c-0.521,0.324-1.195,0.956-1.425,0.743C342.577,349.488,343.259,348.856,343.472,349.069
		c0.945-1.011,3.053-1.339,3-2.415c-1.455,0.238-3.94,2.324-6.409,4.371C340.318,351.621,343.208,350.375,343.472,349.069z"/>
	<path fill="#FFFFFF" d="M342.487,347.911C340.327,350.093,345.103,346.258,342.487,347.911L342.487,347.911z"/>
	<path fill="#FFFFFF" d="M350.071,359.346C346.42,361.962,352.538,357.582,350.071,359.346L350.071,359.346z"/>
	<path fill="#FFFFFF" d="M332.875,350.988c2.379-1.955,4.469-3.809,5.661-5.372C335.815,348.058,332.111,350.356,332.875,350.988z"
		/>
	<path fill="#FFFFFF" d="M338.502,347.998C336.351,350.191,341.136,346.337,338.502,347.998L338.502,347.998z"/>
	<path fill="#FFFFFF" d="M340.063,351.025C338.749,350.902,337.098,353.86,340.063,351.025L340.063,351.025z"/>
	<path fill="#FFFFFF" d="M339.853,351.991C342.381,350.167,336.132,354.66,339.853,351.991L339.853,351.991z"/>
	<path fill="#FFFFFF" d="M331.898,347.468c-0.813,0.624-4.422,3.52-2.228,2.196C330.497,349.057,334.116,346.135,331.898,347.468z"
		/>
	<path fill="#FFFFFF" d="M336.851,353.239c-0.866,0.709-4.987,3.889-2.809,2.648C334.936,355.177,339.044,352.018,336.851,353.239z"
		/>
	<path fill="#FFFFFF" d="M332.654,355.465c2.233-1.605,2.934-2.721,3.005-3.624C334.921,352.975,331.742,354.869,332.654,355.465z"
		/>
	<path fill="#FFFFFF" d="M333.672,351.904C331.511,354.097,336.296,350.236,333.672,351.904L333.672,351.904z"/>
	<path fill="#FFFFFF" d="M336.247,354.906C330.583,358.69,338.099,353.658,336.247,354.906L336.247,354.906z"/>
	<path fill="#FFFFFF" d="M331.269,351.497C329.1,353.71,333.885,349.83,331.269,351.497L331.269,351.497z"/>
	<path fill="#FFFFFF" d="M341.621,363.437C338.975,365.192,342.109,364.218,341.621,363.437L341.621,363.437z"/>
	<path fill="#FFFFFF" d="M331.451,354.08C332.206,353.239,331.145,353.871,331.451,354.08L331.451,354.08z"/>
	<path fill="#FFFFFF" d="M331.451,354.08C327.544,357.153,330.76,355.887,331.451,354.08L331.451,354.08z"/>
	<path fill="#FFFFFF" d="M327.95,354.799c-2.157,1.967-5.688,4.443-6.005,6.039C325.254,358.311,325.264,358.167,327.95,354.799z"/>
	<path fill="#FFFFFF" d="M329.251,358.591C329.952,359.17,331.392,356.187,329.251,358.591L329.251,358.591z"/>
	<path fill="#FFFFFF" d="M331.002,359.433C329.039,361.75,333.454,357.609,331.002,359.433L331.002,359.433z"/>
	<path fill="#FFFFFF" d="M331.409,359.893C333.771,357.906,327.93,362.789,331.409,359.893L331.409,359.893z"/>
	<path fill="#FFFFFF" d="M329.391,357.609c-0.854,0.842-2.232,1.877-2.029,2.326l1.89-1.344L329.391,357.609z"/>
	<path fill="#FFFFFF" d="M318.68,357.24c1.493-1.142,2.888-2.107,4.757-4.038c0.405-0.465,0.492-0.826,0.158-0.994l-9.094,8.523
		c-2.116,1.652-2.933,3.393-0.361,0.768L318.68,357.24z"/>
	<path fill="#FFFFFF" d="M326.87,357.066C324.857,359.425,329.318,355.248,326.87,357.066L326.87,357.066z"/>
	<path fill="#FFFFFF" d="M326.705,358.048C328.846,356.343,322.21,361.647,326.705,358.048L326.705,358.048z"/>
	<path fill="#FFFFFF" d="M326.809,360.469C324.93,360.927,323.43,364.095,326.809,360.469L326.809,360.469z"/>
	<path fill="#FFFFFF" d="M315.361,362.841c1.054-1.055,5.75-5.093,3.777-3.951C318.101,359.943,313.396,364,315.361,362.841z"/>
	<path fill="#FFFFFF" d="M309.945,365.007C306.417,367.985,312.35,362.998,309.945,365.007L309.945,365.007z"/>
	<path fill="#FFFFFF" d="M310.429,366.65C308.434,369.012,312.903,364.822,310.429,366.65L310.429,366.65z"/>
	<path fill="#FFFFFF" d="M309.445,366.756C311.208,365.359,304.055,370.967,309.445,366.756L309.445,366.756z"/>
	<path fill="#FFFFFF" d="M311.326,368.741C313.704,366.737,307.793,371.678,311.326,368.741L311.326,368.741z"/>
	<path fill="#FFFFFF" d="M304.835,369.809c0.563-0.173,3.637-2.474,3.417-3.201c-1.44,1.579-2.459,1.956-3.626,2.991
		C294.502,378.467,301.542,373.777,304.835,369.809z"/>
	<path fill="#FFFFFF" d="M309.289,367.722c-2.1,2.177-8.746,7.768-7.728,7.673C304.04,372.445,309.742,368.835,309.289,367.722z"/>
	<path fill="#FFFFFF" d="M307.357,372.455C309.742,370.454,303.837,375.412,307.357,372.455L307.357,372.455z"/>
	<path fill="#FFFFFF" d="M303.468,374.024C299.947,376.99,305.864,372.015,303.468,374.024L303.468,374.024z"/>
	<path fill="#FFFFFF" d="M303.406,376.176C305.793,374.164,299.875,379.133,303.406,376.176L303.406,376.176z"/>
	<path fill="#FFFFFF" d="M305.732,378.573C303.193,380.571,306.265,379.326,305.732,378.573L305.732,378.573z"/>
	<path fill="#FFFFFF" d="M299.586,375.584C297.575,377.958,302.072,373.743,299.586,375.584L299.586,375.584z"/>
	<path fill="#FFFFFF" d="M299.667,376.783C297.98,379.407,301.845,375.342,299.667,376.783L299.667,376.783z"/>
	<path fill="#FFFFFF" d="M297.244,376.542c-7.935,6.776-17.152,15.6-21.737,22.135C283.847,389.826,289.728,383.997,297.244,376.542
		z"/>
	<path fill="#FFFFFF" d="M295.293,383.4C297.63,381.338,291.852,386.454,295.293,383.4L295.293,383.4z"/>
	<path fill="#FFFFFF" d="M293.24,384.637C291.405,387.103,295.577,382.653,293.24,384.637L293.24,384.637z"/>
	<path fill="#FFFFFF" d="M295.706,386.005c-0.22-0.2-0.799,0.521-1.253,0.906C294.662,387.103,295.258,386.387,295.706,386.005z"/>
	<path fill="#FFFFFF" d="M290.148,384.822C287.702,386.084,289.341,387.333,290.148,384.822L290.148,384.822z"/>
	<path fill="#FFFFFF" d="M282.248,395.461l0.23,0.21C283.029,395.005,282.537,395.162,282.248,395.461z"/>
	<path fill="#FFFFFF" d="M82.907,439.265C81.168,436.949,84.039,441.936,82.907,439.265L82.907,439.265z"/>
</g>
</svg>
