<?xml version="1.0" encoding="utf-8"?>
<!-- Generator: Adobe Illustrator 14.0.0, SVG Export Plug-In . SVG Version: 6.00 Build 43363)  -->
<!DOCTYPE svg PUBLIC "-//W3C//DTD SVG 1.1//EN" "http://www.w3.org/Graphics/SVG/1.1/DTD/svg11.dtd">
<svg version="1.1" id="Capa_1" xmlns="http://www.w3.org/2000/svg" xmlns:xlink="http://www.w3.org/1999/xlink" x="0px" y="0px"
	 width="595.28px" height="841.89px" viewBox="0 0 595.28 841.89" enable-background="new 0 0 595.28 841.89" xml:space="preserve">
<g>
	<g>
		<path fill="#FFFFFF" d="M556.231,222.151c-7.623-7.22-18.181-11.789-30.017-11.789H416.52c-0.142,0-0.284,0-0.379,0h-0.71
			c-1.609-63.796-53.735-115.069-117.933-115.069c-64.151,0-116.276,51.273-117.934,115.069h-0.378c-0.142,0-0.237,0-0.379,0H69.063
			c-22.914,0-41.567,16.973-41.567,37.97c0,20.902,18.653,37.851,41.567,37.851h11.031c-0.237,2.367-0.473,4.711-0.473,7.125
			v339.644c0,45.853,44.598,82.97,99.564,82.97h236.955c54.967,0,99.517-37.117,99.517-82.97V293.309
			c0-0.095-0.047-0.213-0.047-0.332c0-2.296-0.143-4.498-0.379-6.794h10.983c22.962,0,41.568-16.949,41.568-37.851
			C567.783,238.106,563.38,228.945,556.231,222.151z M297.498,118.374c51.51,0,93.314,40.881,94.924,91.989H202.621
			C204.23,159.255,246.035,118.374,297.498,118.374z M211.332,638.303c0,9.279-15.103,16.854-33.756,16.854
			c-18.606,0-33.709-7.575-33.709-16.854V364.372c0-9.327,15.103-16.854,33.709-16.854c18.653,0,33.756,7.528,33.756,16.854V638.303
			z M331.396,638.303c0,9.279-15.103,16.854-33.709,16.854c-18.701,0-33.756-7.575-33.756-16.854V364.372
			c0-9.327,15.055-16.854,33.756-16.854c18.606,0,33.709,7.528,33.709,16.854V638.303z M451.507,638.303
			c0,9.279-15.15,16.854-33.804,16.854c-18.606,0-33.756-7.575-33.756-16.854V364.372c0-9.327,15.149-16.854,33.756-16.854
			c18.653,0,33.804,7.528,33.804,16.854V638.303z"/>
	</g>
</g>
</svg>
